<svg xmlns="http://www.w3.org/2000/svg" xmlns:xlink="http://www.w3.org/1999/xlink" width="110.827" height="110.796" viewBox="0 0 110.827 110.796">
  <defs>
    <linearGradient id="linear-gradient" x1="1.112" y1="1" x2="0.5" y2="1" gradientUnits="objectBoundingBox">
      <stop offset="0" stop-color="#8e56c6"/>
      <stop offset="1" stop-color="#045d63"/>
    </linearGradient>
  </defs>
  <g id="project-management" transform="translate(0 -0.067)">
    <g id="Group_156" data-name="Group 156" transform="translate(0 0.524)">
      <g id="Group_155" data-name="Group 155" transform="translate(0 0)">
        <path id="Path_62" data-name="Path 62" d="M109.249,30.686h0l0,0-7.154-1.021a1.839,1.839,0,0,1-.844-3.292l5.782-4.336a1.839,1.839,0,0,0,.368-2.575l-6.62-8.827a1.839,1.839,0,0,0-2.575-.368L92.422,14.6a1.839,1.839,0,0,1-2.931-1.73l1.022-7.154a1.839,1.839,0,0,0-1.559-2.081h0L78.036,2.076a1.839,1.839,0,0,0-2.082,1.559h0l-1.022,7.154a1.839,1.839,0,0,1-3.292.844L67.306,5.851a1.839,1.839,0,0,0-2.575-.368L59.205,9.63a35.581,35.581,0,0,0-7.521,0A34.94,34.94,0,0,0,20.876,40.96c-.05.52-.068,1.037-.094,1.554H20.23a1.839,1.839,0,0,0-1.8,1.471l-1.271,6.043-5.09-3.511a1.839,1.839,0,0,0-2.345.213L4.209,52.248A1.839,1.839,0,0,0,4,54.591L7.49,59.672,1.445,60.943A1.839,1.839,0,0,0,0,62.743V70.1a1.839,1.839,0,0,0,1.46,1.8L7.5,73.17,4.011,78.251a1.839,1.839,0,0,0,.213,2.343l5.517,5.517a1.839,1.839,0,0,0,2.345.213l5.081-3.5,1.271,6.045a1.839,1.839,0,0,0,1.8,1.471h7.356a1.839,1.839,0,0,0,1.8-1.46l1.271-6.045,5.081,3.494a1.839,1.839,0,0,0,2.343-.213l2.856-2.865v5.241a7.332,7.332,0,0,0,3.678,6.333v10.217a7.356,7.356,0,0,0,7.356,7.356h7.356a7.356,7.356,0,0,0,7.356-7.356V94.822a7.332,7.332,0,0,0,3.678-6.333V81.21A9.011,9.011,0,0,1,74.619,73.7a35.291,35.291,0,0,0,4.329-3.31L76.5,67.653a31.306,31.306,0,0,1-3.875,2.963A12.667,12.667,0,0,0,66.688,81.21v7.279a3.678,3.678,0,0,1-3.678,3.678H48.3a3.678,3.678,0,0,1-3.678-3.678V81.057a12.372,12.372,0,0,0-5.833-10.379A31.169,31.169,0,0,1,55.259,13.119a2,2,0,0,0-.072.2,1.839,1.839,0,0,0,.351,1.363l4.334,5.78a1.8,1.8,0,0,1,.11,2.041,1.828,1.828,0,0,1-1.839.885l-7.154-1.022a1.839,1.839,0,0,0-2.081,1.559v0L47.348,34.848a1.839,1.839,0,0,0,1.559,2.081h0l7.154,1.022a1.839,1.839,0,0,1,.844,3.292l-5.78,4.334a1.839,1.839,0,0,0-.368,2.575l6.62,8.827a1.839,1.839,0,0,0,2.575.368l5.782-4.334a1.839,1.839,0,0,1,2.922,1.73L67.637,61.9A1.839,1.839,0,0,0,69.2,63.979h0L80.12,65.54a2.038,2.038,0,0,0,.259.017A1.839,1.839,0,0,0,82.2,63.979l1.021-7.154a1.839,1.839,0,0,1,3.292-.844l4.336,5.78a1.839,1.839,0,0,0,2.575.368l8.827-6.62a1.839,1.839,0,0,0,.368-2.575l-4.334-5.78a1.808,1.808,0,0,1-.11-2.041,1.786,1.786,0,0,1,1.839-.883l7.154,1.021a1.839,1.839,0,0,0,2.082-1.559h0l1.559-10.923A1.839,1.839,0,0,0,109.249,30.686ZM48.3,95.844H63.01v3.678H48.3Zm0,7.356H63.01v1.839a3.678,3.678,0,0,1-3.678,3.678H51.976a3.678,3.678,0,0,1-3.678-3.678ZM33.658,71.487a34.757,34.757,0,0,0,3.143,2.29,8.976,8.976,0,0,1,3.705,4.706L36.562,82.42l-3.82-2.633a3.678,3.678,0,0,0-5.686,2.271l-.964,4.592H21.722l-.964-4.585a3.678,3.678,0,0,0-5.686-2.271L11.251,82.42,7.9,79.076l2.632-3.818a3.678,3.678,0,0,0-2.269-5.688l-4.585-.965V64.236l4.585-.965a3.678,3.678,0,0,0,2.271-5.677L7.9,53.765l3.351-3.343,3.823,2.633a3.678,3.678,0,0,0,5.684-2.273l.322-1.53a35.02,35.02,0,0,0,1.458,6.236,11.034,11.034,0,1,0,11.12,16ZM30.8,68.9a7.345,7.345,0,1,1-6.9-9.831h.07A34.828,34.828,0,0,0,30.8,68.9Zm75.055-27.551-5.333-.761a5.517,5.517,0,0,0-5.193,8.772l3.231,4.309-5.885,4.413-3.233-4.307A5.517,5.517,0,0,0,79.57,56.3l-.745,5.34L71.545,60.6l.761-5.333a5.517,5.517,0,0,0-8.772-5.2L59.225,53.3l-4.413-5.885,4.307-3.233a5.517,5.517,0,0,0-2.529-9.875l-5.333-.761,1.041-7.28,5.333.761a5.517,5.517,0,0,0,5.2-8.772l-3.242-4.312,5.885-4.413L68.7,13.839a5.517,5.517,0,0,0,9.875-2.529l.761-5.333,7.28,1.039-.761,5.333a5.517,5.517,0,0,0,8.772,5.193l4.309-3.231,4.413,5.885L99.043,23.43a5.517,5.517,0,0,0,2.529,9.875l5.333.761Z" transform="translate(0 -2.057)" fill="url(#linear-gradient)"/>
      </g>
    </g>
    <g id="Group_158" data-name="Group 158" transform="translate(64.364 17.561)">
      <g id="Group_157" data-name="Group 157">
        <path id="Path_63" data-name="Path 63" d="M294.712,76.171a14.712,14.712,0,1,0,14.712,14.712A14.712,14.712,0,0,0,294.712,76.171Zm0,25.745a11.034,11.034,0,1,1,11.034-11.034A11.034,11.034,0,0,1,294.712,101.916Z" transform="translate(-280 -76.171)" fill="url(#linear-gradient)"/>
      </g>
    </g>
    <g id="Group_160" data-name="Group 160" transform="translate(53.815 81.439)">
      <g id="Group_159" data-name="Group 159">
        <rect id="Rectangle_118" data-name="Rectangle 118" width="3.678" height="5.517" fill="url(#linear-gradient)"/>
      </g>
    </g>
    <g id="Group_162" data-name="Group 162" transform="translate(29.893 21.036)">
      <g id="Group_161" data-name="Group 161">
        <path id="Path_64" data-name="Path 64" d="M147.762,133.633a22.068,22.068,0,0,1-3.726-39.23l-1.966-3.112a25.745,25.745,0,0,0,4.357,45.764,11.74,11.74,0,0,1,7.54,10.96h3.678A15.387,15.387,0,0,0,147.762,133.633Z" transform="translate(-130.044 -91.291)" fill="url(#linear-gradient)"/>
      </g>
    </g>
    <g id="Group_164" data-name="Group 164" transform="translate(90.594 68.566)">
      <g id="Group_163" data-name="Group 163">
        <rect id="Rectangle_119" data-name="Rectangle 119" width="12.873" height="3.678" fill="url(#linear-gradient)"/>
      </g>
    </g>
    <g id="Group_166" data-name="Group 166" transform="translate(87.579 78.186)">
      <g id="Group_165" data-name="Group 165">
        <rect id="Rectangle_120" data-name="Rectangle 120" width="3.678" height="14.362" transform="matrix(0.64, -0.768, 0.768, 0.64, 0, 2.826)" fill="url(#linear-gradient)"/>
      </g>
    </g>
    <g id="Group_168" data-name="Group 168" transform="translate(79.561 83.278)">
      <g id="Group_167" data-name="Group 167">
        <rect id="Rectangle_121" data-name="Rectangle 121" width="3.678" height="12.873" fill="url(#linear-gradient)"/>
      </g>
    </g>
    <g id="Group_170" data-name="Group 170" transform="translate(1.878 28.163)">
      <g id="Group_169" data-name="Group 169">
        <rect id="Rectangle_122" data-name="Rectangle 122" width="15.164" height="3.676" transform="translate(0 3.677) rotate(-14.035)" fill="url(#linear-gradient)"/>
      </g>
    </g>
    <g id="Group_172" data-name="Group 172" transform="translate(4.933 10.064)">
      <g id="Group_171" data-name="Group 171">
        <rect id="Rectangle_123" data-name="Rectangle 123" width="3.676" height="15.819" transform="matrix(0.581, -0.814, 0.814, 0.581, 0, 2.991)" fill="url(#linear-gradient)"/>
      </g>
    </g>
    <g id="Group_174" data-name="Group 174" transform="translate(20.689 0.067)">
      <g id="Group_173" data-name="Group 173" transform="translate(0 0)">
        <rect id="Rectangle_124" data-name="Rectangle 124" width="3.678" height="15.184" transform="matrix(0.969, -0.248, 0.248, 0.969, 0, 0.911)" fill="url(#linear-gradient)"/>
      </g>
    </g>
  </g>
</svg>
