<svg xmlns="http://www.w3.org/2000/svg" width="22" height="22" viewBox="0 0 22 22">
  <g id="twitter" transform="translate(-637 -9447)">
    <path id="Path_563" data-name="Path 563" d="M0,0H22V22H0V0Z" transform="translate(637 9447)" fill="#fff" opacity="0"/>
    <path id="twitter-2" data-name="twitter" d="M21,3A9.909,9.909,0,0,1,18.145,4.39,4.073,4.073,0,0,0,11,7.117v.909A9.691,9.691,0,0,1,2.818,3.908S-.818,12.09,7.364,15.726A10.582,10.582,0,0,1,1,17.545c8.182,4.545,18.182,0,18.182-10.455a4.091,4.091,0,0,0-.073-.755A7.018,7.018,0,0,0,21,3Z" transform="translate(637 9446.672)" fill="none" stroke="#155e63" stroke-linecap="round" stroke-linejoin="round" stroke-width="1"/>
  </g>
</svg>
