<svg xmlns="http://www.w3.org/2000/svg" xmlns:xlink="http://www.w3.org/1999/xlink" width="757.101" height="600.172" viewBox="0 0 757.101 600.172">
  <defs>
    <linearGradient id="linear-gradient" x1="0.5" x2="0.5" y2="1" gradientUnits="objectBoundingBox">
      <stop offset="0" stop-color="#f7f5f6"/>
      <stop offset="1" stop-color="#c1c1c1"/>
    </linearGradient>
    <filter id="Rectangle_48" x="62.213" y="185.244" width="504.401" height="364.435" filterUnits="userSpaceOnUse">
      <feOffset dy="3" input="SourceAlpha"/>
      <feGaussianBlur stdDeviation="3" result="blur"/>
      <feFlood flood-opacity="0.161"/>
      <feComposite operator="in" in2="blur"/>
      <feComposite in="SourceGraphic"/>
    </filter>
    <filter id="Rectangle_12" x="479.627" y="270.565" width="277.475" height="329.607" filterUnits="userSpaceOnUse">
      <feOffset dy="3" input="SourceAlpha"/>
      <feGaussianBlur stdDeviation="3" result="blur-2"/>
      <feFlood flood-opacity="0.161"/>
      <feComposite operator="in" in2="blur-2"/>
      <feComposite in="SourceGraphic"/>
    </filter>
  </defs>
  <g id="Group_337" data-name="Group 337" transform="translate(-991.899 -213.251)">
    <g id="laptop" transform="translate(-65.385 -12.802)">
      <g id="Group_79" data-name="Group 79">
        <g id="Group_52" data-name="Group 52" transform="matrix(0.996, 0.087, -0.087, 0.996, 1071.57, 186.802)">
          <g transform="matrix(1, -0.09, 0.09, 1, -10.81, 40.35)" filter="url(#Rectangle_48)">
            <path id="Rectangle_48-2" data-name="Rectangle 48" d="M0,0H438.975a0,0,0,0,1,0,0V236.033a5,5,0,0,1-5,5H5a5,5,0,0,1-5-5V0A0,0,0,0,1,0,0Z" transform="translate(71.21 304.86) rotate(-15)" fill="url(#linear-gradient)"/>
          </g>
          <g id="Group_31" data-name="Group 31" transform="translate(0 0)">
            <g id="Path_4" data-name="Path 4" transform="matrix(0.94, -0.342, 0.342, 0.94, 0, 163.918)" fill="#fff">
              <path d="M 350.3105773925781 6.297890186309814 L 5.321992874145508 3.181068181991577 L 5.882847309112549 2.512869596481323 L 350.3105773925781 6.297890186309814 Z" stroke="none"/>
              <path d="M 4.728057861328125 -3.0517578125e-05 L 477.6027221679688 5.196568965911865 L 479.2634582519531 9.963035583496094 L 0 5.633035659790039 L 4.728057861328125 -3.0517578125e-05 Z" stroke="none" fill="#8e8e8e"/>
            </g>
            <g id="Path_3" data-name="Path 3" transform="matrix(0.94, -0.342, 0.342, 0.94, 1.75, 169.033)" fill="#fff">
              <path d="M 455.2944946289062 183.5695953369141 L 22.7044792175293 183.0523681640625 L 4.433090686798096 4.039891719818115 L 475.0499267578125 8.260899543762207 L 455.2944946289062 183.5695953369141 Z" stroke="none"/>
              <path d="M 8.86627197265625 8.079833984375 L 26.31744384765625 179.0567016601562 L 451.7203979492188 179.5653076171875 L 470.5783386230469 12.22096252441406 L 8.86627197265625 8.079833984375 M 0 0 L 479.5214538574219 4.300872802734375 L 458.8685302734375 187.5738677978516 L 19.09152221679688 187.0480651855469 L 0 0 Z" stroke="none" fill="#53616e"/>
            </g>
          </g>
          <rect id="Rectangle_49" data-name="Rectangle 49" width="39.05" height="6.733" rx="2" transform="matrix(0.94, -0.342, 0.342, 0.94, 100.961, 329.112)" fill="#3e3e3e"/>
          <rect id="Rectangle_50" data-name="Rectangle 50" width="39.05" height="6.733" rx="2" transform="matrix(0.94, -0.342, 0.342, 0.94, 444.331, 203.883)" fill="#3e3e3e"/>
          <g id="Group_32" data-name="Group 32" transform="translate(144.286 343.518)">
            <path id="Path_5" data-name="Path 5" d="M.05,0,25.83.046l-.17.467L0,.411Z" transform="translate(3.188 17.687) rotate(-20)" fill="#d9d4d4"/>
            <rect id="Rectangle_22" data-name="Rectangle 22" width="25.796" height="9.459" transform="translate(0 8.823) rotate(-20)" fill="#53616e"/>
          </g>
          <g id="Group_33" data-name="Group 33" transform="translate(173.91 332.746)">
            <path id="Path_5-2" data-name="Path 5" d="M.05,0,25.83.046l-.17.467L0,.411Z" transform="translate(3.188 17.687) rotate(-20)" fill="#d9d4d4"/>
            <rect id="Rectangle_22-2" data-name="Rectangle 22" width="25.796" height="9.459" transform="translate(0 8.823) rotate(-20)" fill="#53616e"/>
          </g>
          <g id="Group_34" data-name="Group 34" transform="translate(203.534 321.973)">
            <path id="Path_5-3" data-name="Path 5" d="M.05,0,25.83.046l-.17.467L0,.411Z" transform="translate(3.188 17.687) rotate(-20)" fill="#d9d4d4"/>
            <rect id="Rectangle_22-3" data-name="Rectangle 22" width="25.796" height="9.459" transform="translate(0 8.823) rotate(-20)" fill="#53616e"/>
          </g>
          <g id="Group_35" data-name="Group 35" transform="translate(233.158 311.201)">
            <path id="Path_5-4" data-name="Path 5" d="M.05,0,25.83.046l-.17.467L0,.411Z" transform="translate(3.188 17.687) rotate(-20)" fill="#d9d4d4"/>
            <rect id="Rectangle_22-4" data-name="Rectangle 22" width="25.796" height="9.459" transform="translate(0 8.823) rotate(-20)" fill="#53616e"/>
          </g>
          <g id="Group_36" data-name="Group 36" transform="translate(262.782 300.428)">
            <path id="Path_5-5" data-name="Path 5" d="M.05,0,25.83.046l-.17.467L0,.411Z" transform="translate(3.188 17.687) rotate(-20)" fill="#d9d4d4"/>
            <rect id="Rectangle_22-5" data-name="Rectangle 22" width="25.796" height="9.459" transform="translate(0 8.823) rotate(-20)" fill="#53616e"/>
          </g>
          <g id="Group_37" data-name="Group 37" transform="translate(292.406 289.656)">
            <path id="Path_5-6" data-name="Path 5" d="M.05,0,25.83.046l-.17.467L0,.411Z" transform="translate(3.188 17.687) rotate(-20)" fill="#d9d4d4"/>
            <rect id="Rectangle_22-6" data-name="Rectangle 22" width="25.796" height="9.459" transform="translate(0 8.823) rotate(-20)" fill="#53616e"/>
          </g>
          <g id="Group_38" data-name="Group 38" transform="translate(322.03 278.884)">
            <path id="Path_5-7" data-name="Path 5" d="M.05,0,25.83.046l-.17.467L0,.411Z" transform="translate(3.188 17.687) rotate(-20)" fill="#d9d4d4"/>
            <rect id="Rectangle_22-7" data-name="Rectangle 22" width="25.796" height="9.459" transform="translate(0 8.823) rotate(-20)" fill="#53616e"/>
          </g>
          <g id="Group_39" data-name="Group 39" transform="translate(351.654 268.111)">
            <path id="Path_5-8" data-name="Path 5" d="M.05,0,25.83.046l-.17.467L0,.411Z" transform="translate(3.188 17.687) rotate(-20)" fill="#d9d4d4"/>
            <rect id="Rectangle_22-8" data-name="Rectangle 22" width="25.796" height="9.459" transform="translate(0 8.823) rotate(-20)" fill="#53616e"/>
          </g>
          <g id="Group_40" data-name="Group 40" transform="translate(381.279 257.339)">
            <path id="Path_5-9" data-name="Path 5" d="M.05,0,25.83.046l-.17.467L0,.411Z" transform="translate(3.188 17.687) rotate(-20)" fill="#d9d4d4"/>
            <rect id="Rectangle_22-9" data-name="Rectangle 22" width="25.796" height="9.459" transform="translate(0 8.823) rotate(-20)" fill="#53616e"/>
          </g>
          <g id="Group_41" data-name="Group 41" transform="translate(410.903 246.566)">
            <path id="Path_5-10" data-name="Path 5" d="M.05,0,25.83.046l-.17.467L0,.411Z" transform="translate(3.188 17.687) rotate(-20)" fill="#d9d4d4"/>
            <rect id="Rectangle_22-10" data-name="Rectangle 22" width="25.796" height="9.459" transform="translate(0 8.823) rotate(-20)" fill="#53616e"/>
          </g>
          <g id="Group_42" data-name="Group 42" transform="translate(150.566 358.995)">
            <g id="Group_21" data-name="Group 21">
              <path id="Path_5-11" data-name="Path 5" d="M.144,0,35.685.039l-.2.374L0,.4Z" transform="translate(6.597 30.761) rotate(-20)" fill="#d9d4d4"/>
              <rect id="Rectangle_22-11" data-name="Rectangle 22" width="35.541" height="19.765" transform="translate(0 12.156) rotate(-20)" fill="#53616e"/>
            </g>
          </g>
          <g id="Group_43" data-name="Group 43" transform="translate(190.963 344.183)">
            <g id="Group_21-2" data-name="Group 21">
              <path id="Path_5-12" data-name="Path 5" d="M.144,0,35.685.039l-.2.374L0,.4Z" transform="translate(6.597 30.761) rotate(-20)" fill="#d9d4d4"/>
              <rect id="Rectangle_22-12" data-name="Rectangle 22" width="35.541" height="19.765" transform="translate(0 12.156) rotate(-20)" fill="#53616e"/>
            </g>
          </g>
          <g id="Group_44" data-name="Group 44" transform="translate(231.359 329.371)">
            <g id="Group_21-3" data-name="Group 21">
              <path id="Path_5-13" data-name="Path 5" d="M.144,0,35.685.039l-.2.374L0,.4Z" transform="translate(6.597 30.761) rotate(-20)" fill="#d9d4d4"/>
              <rect id="Rectangle_22-13" data-name="Rectangle 22" width="35.541" height="19.765" transform="translate(0 12.156) rotate(-20)" fill="#53616e"/>
            </g>
          </g>
          <g id="Group_45" data-name="Group 45" transform="translate(273.102 314.559)">
            <g id="Group_21-4" data-name="Group 21">
              <path id="Path_5-14" data-name="Path 5" d="M.144,0,35.685.039l-.2.374L0,.4Z" transform="translate(6.597 30.761) rotate(-20)" fill="#d9d4d4"/>
              <rect id="Rectangle_22-14" data-name="Rectangle 22" width="35.541" height="19.765" transform="translate(0 12.156) rotate(-20)" fill="#53616e"/>
            </g>
          </g>
          <g id="Group_46" data-name="Group 46" transform="translate(313.499 299.747)">
            <g id="Group_21-5" data-name="Group 21">
              <path id="Path_5-15" data-name="Path 5" d="M.144,0,35.685.039l-.2.374L0,.4Z" transform="translate(6.597 30.761) rotate(-20)" fill="#d9d4d4"/>
              <rect id="Rectangle_22-15" data-name="Rectangle 22" width="35.541" height="19.765" transform="translate(0 12.156) rotate(-20)" fill="#53616e"/>
            </g>
          </g>
          <g id="Group_47" data-name="Group 47" transform="translate(353.895 284.935)">
            <g id="Group_21-6" data-name="Group 21">
              <path id="Path_5-16" data-name="Path 5" d="M.144,0,35.685.039l-.2.374L0,.4Z" transform="translate(6.597 30.761) rotate(-20)" fill="#d9d4d4"/>
              <rect id="Rectangle_22-16" data-name="Rectangle 22" width="35.541" height="19.765" transform="translate(0 12.156) rotate(-20)" fill="#53616e"/>
            </g>
          </g>
          <g id="Group_48" data-name="Group 48" transform="translate(392.945 270.123)">
            <g id="Group_21-7" data-name="Group 21">
              <path id="Path_5-17" data-name="Path 5" d="M.144,0,35.685.039l-.2.374L0,.4Z" transform="translate(6.597 30.761) rotate(-20)" fill="#d9d4d4"/>
              <rect id="Rectangle_22-17" data-name="Rectangle 22" width="35.541" height="19.765" transform="translate(0 12.156) rotate(-20)" fill="#53616e"/>
            </g>
          </g>
          <g id="Group_49" data-name="Group 49" transform="translate(433.342 255.311)">
            <g id="Group_21-8" data-name="Group 21">
              <path id="Path_5-18" data-name="Path 5" d="M.144,0,35.685.039l-.2.374L0,.4Z" transform="translate(6.597 30.761) rotate(-20)" fill="#d9d4d4"/>
              <rect id="Rectangle_22-18" data-name="Rectangle 22" width="35.541" height="19.765" transform="translate(0 12.156) rotate(-20)" fill="#53616e"/>
            </g>
          </g>
          <g id="Group_50" data-name="Group 50" transform="translate(438.825 236.619)">
            <path id="Path_5-19" data-name="Path 5" d="M.053.473,23.235,0l-.162.446L0,.863Z" transform="translate(3.029 16.438) rotate(-20)" fill="#d9d4d4"/>
            <path id="Path_6" data-name="Path 6" d="M.19.517,23.387,0,23.2,8.958,0,9.476Z" transform="translate(0 7.999) rotate(-20)" fill="#53616e"/>
          </g>
          <rect id="Rectangle_51" data-name="Rectangle 51" width="27.462" height="19.765" transform="translate(205.775 439.825) rotate(-20)" fill="#53616e"/>
          <rect id="Rectangle_52" data-name="Rectangle 52" width="51.7" height="19.765" transform="translate(161.338 396.735) rotate(-20)" fill="#53616e"/>
          <rect id="Rectangle_53" data-name="Rectangle 53" width="73.245" height="19.765" transform="translate(170.764 422.32) rotate(-20)" fill="#53616e"/>
          <rect id="Rectangle_54" data-name="Rectangle 54" width="27.462" height="19.765" transform="translate(239.525 427.356) rotate(-20)" fill="#53616e"/>
          <rect id="Rectangle_55" data-name="Rectangle 55" width="27.462" height="19.765" transform="translate(219.24 376.537) rotate(-20)" fill="#53616e"/>
          <rect id="Rectangle_56" data-name="Rectangle 56" width="27.462" height="19.765" transform="translate(251.557 364.418) rotate(-20)" fill="#53616e"/>
          <rect id="Rectangle_57" data-name="Rectangle 57" width="27.462" height="19.765" transform="translate(282.528 352.299) rotate(-20)" fill="#53616e"/>
          <rect id="Rectangle_58" data-name="Rectangle 58" width="27.462" height="19.765" transform="translate(314.845 340.18) rotate(-20)" fill="#53616e"/>
          <rect id="Rectangle_59" data-name="Rectangle 59" width="27.462" height="19.765" transform="translate(347.162 328.061) rotate(-20)" fill="#53616e"/>
          <rect id="Rectangle_60" data-name="Rectangle 60" width="27.462" height="19.765" transform="translate(379.48 315.942) rotate(-20)" fill="#53616e"/>
          <rect id="Rectangle_61" data-name="Rectangle 61" width="27.462" height="19.765" transform="translate(410.45 303.823) rotate(-20)" fill="#53616e"/>
          <rect id="Rectangle_62" data-name="Rectangle 62" width="35.541" height="19.765" transform="translate(442.767 291.704) rotate(-20)" fill="#53616e"/>
          <rect id="Rectangle_63" data-name="Rectangle 63" width="27.462" height="19.765" transform="translate(247.518 394.042) rotate(-20)" fill="#53616e"/>
          <rect id="Rectangle_64" data-name="Rectangle 64" width="27.462" height="19.765" transform="translate(279.835 381.923) rotate(-20)" fill="#53616e"/>
          <rect id="Rectangle_65" data-name="Rectangle 65" width="27.462" height="19.765" transform="translate(247.518 394.042) rotate(-20)" fill="#53616e"/>
          <rect id="Rectangle_66" data-name="Rectangle 66" width="27.462" height="19.765" transform="translate(312.152 369.804) rotate(-20)" fill="#53616e"/>
          <rect id="Rectangle_67" data-name="Rectangle 67" width="27.462" height="19.765" transform="translate(376.786 345.566) rotate(-20)" fill="#53616e"/>
          <rect id="Rectangle_68" data-name="Rectangle 68" width="27.462" height="19.765" transform="translate(344.469 357.685) rotate(-20)" fill="#53616e"/>
          <rect id="Rectangle_69" data-name="Rectangle 69" width="27.462" height="19.765" transform="translate(409.104 333.447) rotate(-20)" fill="#53616e"/>
          <rect id="Rectangle_70" data-name="Rectangle 70" width="47.66" height="19.765" transform="translate(441.421 321.328) rotate(-20)" fill="#53616e"/>
          <rect id="Rectangle_71" data-name="Rectangle 71" width="141.919" height="19.765" transform="translate(274.098 414.153) rotate(-20)" fill="#53616e"/>
          <rect id="Rectangle_72" data-name="Rectangle 72" width="27.462" height="19.765" transform="translate(411.797 363.072) rotate(-20)" fill="#53616e"/>
          <rect id="Rectangle_73" data-name="Rectangle 73" width="27.462" height="8.992" transform="translate(442.767 352.299) rotate(-20)" fill="#53616e"/>
          <rect id="Rectangle_74" data-name="Rectangle 74" width="27.462" height="8.992" transform="translate(446.347 361.806) rotate(-20)" fill="#53616e"/>
          <rect id="Rectangle_75" data-name="Rectangle 75" width="27.462" height="19.765" transform="translate(471.045 341.527) rotate(-20)" fill="#53616e"/>
          <rect id="Rectangle_76" data-name="Rectangle 76" width="142.734" height="63.288" rx="2" transform="translate(287.454 439.362) rotate(-20)" fill="#e9e9e9"/>
        </g>
        <g id="Group_4" data-name="Group 4" transform="matrix(0.966, -0.259, 0.259, 0.966, 1269.246, 362.602)">
          <path id="Path_11" data-name="Path 11" d="M41.726,0C64.77,0,83.451,18.469,83.451,41.251S64.77,82.5,41.726,82.5,0,64.034,0,41.251,18.681,0,41.726,0Z" fill="#155e63"/>
          <path id="Union_1" data-name="Union 1" d="M18.966,47.416V28.45H0V18.967H18.966V0H28.45V18.967H47.416V28.45H28.45V47.416Z" transform="translate(18.018 18.017)" fill="#fff"/>
        </g>
      </g>
    </g>
    <g id="chart" transform="translate(-106.287 -9)">
      <g id="Group_6" data-name="Group 6" transform="translate(60.061 -1352.69) rotate(9)">
        <g transform="matrix(0.99, -0.16, 0.16, 0.99, 1271.72, 1393.15)" filter="url(#Rectangle_12)">
          <g id="Rectangle_12-2" data-name="Rectangle 12" transform="translate(532.57 276.56) rotate(9)" fill="#fff" stroke="#53616e" stroke-width="8">
            <rect width="218.214" height="280.929" rx="16" stroke="none"/>
            <rect x="4" y="4" width="210.214" height="272.929" rx="12" fill="none"/>
          </g>
        </g>
        <g id="Group_56" data-name="Group 56" transform="translate(1912.306 1603.619)">
          <g id="Group_55" data-name="Group 55">
            <g id="Group_4-2" data-name="Group 4">
              <ellipse id="Ellipse_2" data-name="Ellipse 2" cx="37.801" cy="37.371" rx="37.801" ry="37.371" fill="#155e63"/>
              <path id="Union_1-2" data-name="Union 1" d="M17.182,42.956V25.774H0V17.183H17.182V0h8.591V17.183H42.956v8.591H25.774V42.956Z" transform="translate(16.323 16.323)" fill="#fff"/>
            </g>
          </g>
        </g>
        <rect id="Rectangle_15" data-name="Rectangle 15" width="171.822" height="22.337" transform="translate(1862.478 1701.557)" fill="#f3f3f3"/>
        <rect id="Rectangle_16" data-name="Rectangle 16" width="171.822" height="22.337" transform="translate(1862.478 1739.358)" fill="#f3f3f3"/>
        <rect id="Rectangle_17" data-name="Rectangle 17" width="171.822" height="22.337" transform="translate(1862.478 1777.159)" fill="#f3f3f3"/>
        <rect id="Rectangle_18" data-name="Rectangle 18" width="171.822" height="22.337" transform="translate(1862.478 1814.96)" fill="#f3f3f3"/>
        <g id="Group_54" data-name="Group 54" transform="translate(1929.834 1619.751)">
          <path id="Union_1-3" data-name="Union 1" d="M17.182,42.956V25.774H0V17.183H17.182V0h8.591V17.183H42.956v8.591H25.774V42.956Z" transform="translate(0 0)" fill="#fff"/>
        </g>
      </g>
    </g>
  </g>
</svg>
