<svg xmlns="http://www.w3.org/2000/svg" xmlns:xlink="http://www.w3.org/1999/xlink" width="901.732" height="855.485" viewBox="0 0 901.732 855.485"><defs><linearGradient id="a" x1="0.5" y1="1" x2="0.5" gradientUnits="objectBoundingBox"><stop offset="0" stop-color="gray" stop-opacity="0.251"/><stop offset="0.54" stop-color="gray" stop-opacity="0.122"/><stop offset="1" stop-color="gray" stop-opacity="0.102"/></linearGradient><linearGradient id="c" y1="0.5" x2="1" y2="0.5" gradientUnits="objectBoundingBox"><stop offset="0" stop-color="#dadada"/><stop offset="1" stop-color="#fff"/></linearGradient><filter id="f" x="403.607" y="559.241" width="250.029" height="101.643" filterUnits="userSpaceOnUse"><feOffset dy="3" input="SourceAlpha"/><feGaussianBlur stdDeviation="3" result="g"/><feFlood flood-opacity="0.161"/><feComposite operator="in" in2="g"/><feComposite in="SourceGraphic"/></filter></defs><g transform="translate(-977 -959.462)"><path d="M717.773,769.432c-30.634,27.228-78.624,32.828-122.341,30.652-137.341-6.823-261.252-73.13-368.459-148.044-38.812-27.147-77.027-56.4-102.221-93.785-51.289-76.091-36.075-181.5,35.236-244.192,24.267-21.324,53.679-37.68,83.832-52.172,53.688-25.765,111.621-46.455,172.56-52.341,43.459-4.2,87.4-.794,130.644,5.066,120.7,16.374,239.179,52.618,338.484,114.5,43.548,27.156,84.6,60.93,102.56,104.87s6.5,99.582-37.974,125.587c-18.389,10.755-40.382,15.607-61.911,20.173-31.7,6.715-63.9,13.377-92.491,26.987-29.537,14.1-64.515,41.363-58.673,72.568C743.324,712.828,748.336,742.2,717.773,769.432Z" transform="translate(882.54 1014.439)" fill="#045d63" opacity="0.1"/><g transform="translate(1280.335 959.462)"><path d="M456.772,421.53,105.09,479.918V605.031L456.772,599.3Z" transform="translate(-105.09 -99.126)" fill="url(#a)"/><path d="M110.38,481.74l339.957-56.66V592.359L110.38,603.151Z" transform="translate(-106.334 -99.961)" fill="#045d63"/><path d="M484.979,209.89,240.91,279.368v72.17L484.979,299.2Z" transform="translate(-137.029 -49.357)" fill="url(#a)"/><path d="M479.99,213.42,247.96,280.871v67.451l232.03-53.96Z" transform="translate(-138.687 -50.187)" fill="#fff"/><path d="M608.317,349.465c0,10.027-4.857,19.343-10.792,20.8s-10.586-5.354-10.586-15.213,4.711-19.121,10.586-20.743S608.317,339.438,608.317,349.465Z" transform="translate(-461.276 -94.62)" fill="none" stroke="#dbdbdb" stroke-miterlimit="10" stroke-width="2"/><path d="M470.745,270.509,323.36,309.279V301L470.745,261.14Z" transform="translate(-156.418 -61.409)" fill="#dbdbdb"/><path d="M470.745,295.2,323.36,333.971V325.7L470.745,285.84Z" transform="translate(-156.418 -67.218)" fill="#dbdbdb"/><path d="M504.717,581.863c0-19.006-8.543-33.248-18.884-31.833-10.134,1.392-18.2,17.347-18.2,35.665s8.069,32.605,18.2,31.9C496.212,616.877,504.717,600.877,504.717,581.863Z" transform="translate(-433.22 -145.383)" fill="#fff"/><path d="M435.915,522.747l-203.3,22.54V532.66l203.3-24.98Z" transform="translate(-135.08 -119.385)" fill="url(#c)"/><path d="M435.915,565.077l-203.3,22.54V574.99l203.3-24.98Z" transform="translate(-135.08 -129.339)" fill="url(#c)"/><path d="M479.316,735.772,239.14,732.95v73.18l242.876,22.463Z" transform="translate(-136.613 -172.359)" fill="url(#a)"/><g transform="matrix(1, 0, 0, 1, -303.33, 0)" filter="url(#f)"><path d="M479.99,741.73l-232.03-2.7v64.759l232.03,18.884Z" transform="translate(164.65 -173.79)" fill="#fff"/></g><path d="M611.85,800.95c0,10-4.857,17.775-10.792,17.362s-10.578-8.673-10.578-18.494,4.711-17.591,10.585-17.369S611.85,790.946,611.85,800.95Z" transform="translate(-462.109 -200.06)" fill="none" stroke="#dbdbdb" stroke-miterlimit="10" stroke-width="2"/><path d="M472.219,783.724l-142.59-6.83V768.45l142.59,5.759Z" transform="translate(-157.892 -180.707)" fill="#dbdbdb"/><path d="M472.219,808.414l-142.59-6.83V793.14l142.59,5.759Z" transform="translate(-157.892 -186.513)" fill="#dbdbdb"/><path d="M485.393,0,242.67,97.265v72.714L485.393,89.035Z" transform="translate(-137.443)" fill="url(#a)"/><path d="M482.69,5.29,247.96,102.417v62.059L482.69,86.233Z" transform="translate(-138.687 -1.244)" fill="#fff"/><path d="M622.427,164.649c0,9.943-4.857,19.779-10.792,21.974s-10.585-3.977-10.585-13.714,4.711-19.526,10.585-21.9S622.427,154.706,622.427,164.649Z" transform="translate(-464.595 -51.453)" fill="none" stroke="#dbdbdb" stroke-miterlimit="10" stroke-width="2"/><path d="M479.26,58.384,336.64,113.9v-9.668L479.26,47.5Z" transform="translate(-159.541 -11.17)" fill="#dbdbdb"/><path d="M479.26,90.134l-142.62,55.5v-9.66L479.26,79.25Z" transform="translate(-159.541 -18.636)" fill="#dbdbdb"/><path d="M284.45,147.947l4.711-.719,4.711,4.7,5.43-10.142h5.8l-11.228,14.127Z" transform="translate(-147.268 -33.343)" fill="#47e6b1"/><path d="M152.45,569.335l7.5-1.155,7.5,7.5,8.65-16.153h9.232l-17.882,22.5Z" transform="translate(-116.227 -131.578)" fill="#ed683c"/><path d="M152.45,569.335l7.5-1.155,7.5,7.5,8.65-16.153h9.232l-17.882,22.5Z" transform="translate(-116.227 -131.578)" opacity="0.2"/></g></g></svg>