<svg xmlns="http://www.w3.org/2000/svg" xmlns:xlink="http://www.w3.org/1999/xlink" width="816.332" height="713.372" viewBox="0 0 816.332 713.372"><defs><filter id="a" x="0" y="22.395" width="468.719" height="299.183" filterUnits="userSpaceOnUse"><feOffset dy="3" input="SourceAlpha"/><feGaussianBlur stdDeviation="3" result="b"/><feFlood flood-opacity="0.161"/><feComposite operator="in" in2="b"/><feComposite in="SourceGraphic"/></filter><filter id="c" x="141.625" y="414.189" width="274.373" height="299.183" filterUnits="userSpaceOnUse"><feOffset dy="3" input="SourceAlpha"/><feGaussianBlur stdDeviation="3" result="d"/><feFlood flood-opacity="0.161"/><feComposite operator="in" in2="d"/><feComposite in="SourceGraphic"/></filter><filter id="e" x="524.115" y="238.45" width="274.373" height="299.183" filterUnits="userSpaceOnUse"><feOffset dy="3" input="SourceAlpha"/><feGaussianBlur stdDeviation="3" result="f"/><feFlood flood-opacity="0.161"/><feComposite operator="in" in2="f"/><feComposite in="SourceGraphic"/></filter></defs><g transform="translate(9)"><g transform="matrix(1, 0, 0, 1, -9, 0)" filter="url(#a)"><rect width="450.719" height="281.182" transform="translate(9 28.39)" fill="#f2f2f2"/></g><rect width="450.719" height="281.182" transform="translate(28.428 1)" fill="none" stroke="#3f3d56" stroke-miterlimit="10" stroke-width="2"/><path d="M354.712,242.985A97.173,97.173,0,0,0,286,77.1v97.173Z" transform="translate(-31.695 -33.199)" fill="#3f3d56"/><path d="M289.174,77.1a97.185,97.185,0,0,0-46.486,182.525l46.486-85.351Z" transform="translate(-34.869 -33.199)" fill="#045d63"/><path d="M356.23,239.812,287.518,171.1l-46.486,85.351A97.224,97.224,0,0,0,356.23,239.812Z" transform="translate(-33.213 -30.025)" fill="#575a89"/><rect width="18.608" height="18.608" transform="translate(45.485 223.775)" fill="#045d63"/><rect width="18.608" height="18.608" transform="translate(72.363 223.775)" fill="#3f3d56"/><rect width="18.608" height="18.608" transform="translate(99.241 223.775)" fill="#575a89"/><rect width="76.498" height="3.101" transform="translate(366.984 227.91)" fill="#3f3d56"/><rect width="76.498" height="3.101" transform="translate(366.984 237.214)" fill="#3f3d56"/><rect width="76.498" height="3.101" transform="translate(366.984 246.518)" fill="#3f3d56"/><g transform="matrix(1, 0, 0, 1, -9, 0)" filter="url(#c)"><rect width="256.372" height="281.182" transform="translate(150.62 420.19)" fill="#f2f2f2"/></g><rect width="256.372" height="281.182" transform="translate(167.469 393.312)" fill="none" stroke="#3f3d56" stroke-miterlimit="10" stroke-width="2"/><rect width="13.823" height="13.823" transform="translate(180.908 642.772)" fill="#045d63"/><rect width="13.823" height="13.823" transform="translate(200.874 642.772)" fill="#3f3d56"/><rect width="13.823" height="13.823" transform="translate(220.84 642.772)" fill="#575a89"/><rect width="53.755" height="2.179" transform="translate(335.972 648.776)" fill="#3f3d56"/><rect width="53.755" height="2.179" transform="translate(335.972 655.313)" fill="#3f3d56"/><rect width="53.755" height="2.179" transform="translate(335.972 661.851)" fill="#3f3d56"/><path d="M326,463.1v22.743a68.228,68.228,0,0,1,48.245,116.473L390.326,618.4A90.971,90.971,0,0,0,326,463.1Z" transform="translate(-30.345 -20.168)" fill="#3f3d56"/><path d="M392.124,613.85l-16.081-16.081a68.211,68.211,0,0,1-89.524,6.07l-13.765,18.112A90.968,90.968,0,0,0,392.124,613.85Z" transform="translate(-32.142 -15.621)" fill="#575a89"/><path d="M260.743,554.07a68.228,68.228,0,0,1,68.228-68.228V463.1a90.97,90.97,0,0,0-55.044,163.4l13.765-18.112A68.109,68.109,0,0,1,260.743,554.07Z" transform="translate(-33.316 -20.168)" fill="#045d63"/><g transform="matrix(1, 0, 0, 1, -9, 0)" filter="url(#e)"><rect width="256.372" height="281.182" transform="translate(533.12 244.45)" fill="#f2f2f2"/></g><rect width="256.372" height="281.182" transform="translate(549.96 217.573)" fill="none" stroke="#3f3d56" stroke-miterlimit="10" stroke-width="2"/><path d="M556,227.5V442.522H763.786" transform="translate(18.77 7.646)" fill="none" stroke="#3f3d56" stroke-miterlimit="10" stroke-width="2"/><rect width="46.519" height="74.431" transform="translate(586.141 374.704)" fill="#575a89"/><rect width="46.519" height="125.085" transform="translate(653.336 324.05)" fill="#3f3d56"/><rect width="46.519" height="184.009" transform="translate(720.53 265.125)" fill="#045d63"/><rect width="13.823" height="13.823" transform="translate(571.669 467.033)" fill="#045d63"/><rect width="13.823" height="13.823" transform="translate(591.635 467.033)" fill="#3f3d56"/><rect width="13.823" height="13.823" transform="translate(611.601 467.033)" fill="#575a89"/><rect width="53.755" height="2.179" transform="translate(726.733 473.037)" fill="#3f3d56"/><rect width="53.755" height="2.179" transform="translate(726.733 479.575)" fill="#3f3d56"/><rect width="53.755" height="2.179" transform="translate(726.733 486.112)" fill="#3f3d56"/></g></svg>