<svg xmlns="http://www.w3.org/2000/svg" xmlns:xlink="http://www.w3.org/1999/xlink" width="896.727" height="816.083" viewBox="0 0 896.727 816.083"><defs><linearGradient id="a" x1="0.5" y1="1" x2="0.5" gradientUnits="objectBoundingBox"><stop offset="0" stop-color="gray" stop-opacity="0.251"/><stop offset="0.54" stop-color="gray" stop-opacity="0.122"/><stop offset="1" stop-color="gray" stop-opacity="0.102"/></linearGradient><linearGradient id="c" xlink:href="#a"/><linearGradient id="g" xlink:href="#a"/></defs><g transform="translate(250.984 56.459)" opacity="0.5"><rect width="403.422" height="557.4" fill="url(#a)"/></g><rect width="393.157" height="545.082" transform="translate(256.117 60.565)" fill="#fff"/><rect width="195.039" height="47.24" transform="translate(355.689 46.173)" fill="url(#a)"/><path d="M605.424,52.5c-15.059,0-27.264,12.5-27.264,27.921s12.205,27.921,27.264,27.921,27.264-12.5,27.264-27.921S620.483,52.5,605.424,52.5Zm0,44.027A16.106,16.106,0,1,1,621.11,80.421a15.921,15.921,0,0,1-15.685,16.106Z" transform="translate(-152.216 -52.5)" fill="url(#c)"/><rect width="190.933" height="45.167" transform="translate(357.742 46.193)" fill="#045d63"/><path d="M605.409,54.5A26.69,26.69,0,1,0,632.1,81.19,26.69,26.69,0,0,0,605.409,54.5Zm0,42.087a15.4,15.4,0,1,1,15.4-15.4A15.4,15.4,0,0,1,605.409,96.587Z" transform="translate(-152.201 -52.447)" fill="#045d63"/><rect width="84.175" height="84.175" transform="translate(274.594 148.845)" fill="url(#a)"/><rect width="84.175" height="84.175" transform="translate(274.881 315.655)" fill="url(#a)"/><rect width="84.175" height="84.175" transform="translate(275.169 480.411)" fill="url(#a)"/><rect width="78.016" height="78.016" transform="translate(277.674 151.925)" fill="#3f3d56"/><rect width="78.016" height="78.016" transform="translate(277.674 317.195)" fill="#045d63"/><rect width="78.016" height="78.016" transform="translate(277.674 482.464)" fill="#045d63"/><rect width="106.933" height="7.463" transform="translate(407.015 176.007)" fill="#e0e0e0"/><rect width="176.561" height="7.463" transform="translate(407.015 187.206)" fill="#e0e0e0"/><rect width="164.13" height="7.463" transform="translate(407.015 198.395)" fill="#e0e0e0"/><rect width="106.933" height="7.463" transform="translate(407.015 341.277)" fill="#e0e0e0"/><rect width="176.561" height="7.463" transform="translate(407.015 352.476)" fill="#e0e0e0"/><rect width="164.13" height="7.463" transform="translate(407.015 363.665)" fill="#e0e0e0"/><rect width="106.933" height="7.463" transform="translate(407.015 506.546)" fill="#e0e0e0"/><rect width="176.561" height="7.463" transform="translate(407.015 517.746)" fill="#e0e0e0"/><rect width="164.13" height="7.463" transform="translate(407.015 528.935)" fill="#e0e0e0"/><path d="M291.4,181.9l14.166,13,20.068-29.512,7.083,5.9L305.568,206.7,285.5,184.268Z" transform="translate(7.571 4.386)" fill="url(#g)"/><path d="M293.633,182.371l12.318,11.292L323.4,168l6.159,5.133-23.61,30.8-17.451-19.5Z" transform="translate(7.651 4.455)" fill="#fff"/><path d="M293.633,344.371l12.318,11.292L323.4,330l6.159,5.133-23.61,30.8-17.451-19.5Z" transform="translate(7.651 8.752)" fill="#fff"/><path d="M293.633,506.371l12.318,11.292L323.4,492l6.159,5.133-23.61,30.8-17.451-19.5Z" transform="translate(7.651 13.048)" fill="#fff"/><g transform="translate(668.264 218.649)" opacity="0.5"><line x2="6.159" transform="translate(0 141.66)" fill="none" stroke="#69f0ae" stroke-miterlimit="10" stroke-width="5"/><line x2="136.209" transform="translate(18.005 141.66)" fill="none" stroke="#69f0ae" stroke-miterlimit="10" stroke-width="5" stroke-dasharray="11.54 11.54"/><path d="M807,351.159h6.159V345" transform="translate(-646.863 -209.499)" fill="none" stroke="#69f0ae" stroke-miterlimit="10" stroke-width="5"/><line y1="111.706" transform="translate(166.296 12.041)" fill="none" stroke="#69f0ae" stroke-miterlimit="10" stroke-width="5" stroke-dasharray="11.45 11.45"/><line y1="6.159" transform="translate(166.296)" fill="none" stroke="#69f0ae" stroke-miterlimit="10" stroke-width="5"/></g><path d="M235.054,182.5H97.5V311.841" transform="translate(2.586 4.84)" fill="none" stroke="#69f0ae" stroke-miterlimit="10" stroke-width="5" stroke-dasharray="12" opacity="0.5"/><path d="M308.5,611.5v73.909H513.8" transform="translate(8.181 16.217)" fill="none" stroke="#69f0ae" stroke-miterlimit="10" stroke-width="5" stroke-dasharray="12" opacity="0.5"/><g transform="translate(738.519 43.114)" opacity="0.5"><path d="M877.647,108.816,798.544,42l-77.872,66.672-.7-.39v.534h-.534l.534.3V197h157.14l-.955-.534h1.489Z" transform="translate(-719.44 -42)" fill="url(#a)"/></g><path d="M874.4,193.332H723.5V109.157L798.436,45,874.4,109.157Z" transform="translate(19.187 1.193)" fill="#fff"/><path d="M722.5,107.5l74.936,42.087L873.4,107.5" transform="translate(19.161 2.851)" fill="#e0e0e0"/><g transform="translate(771.943 70.83)" opacity="0.5"><path d="M798.214,149.551,752,178.838V69h91.36v55.863Z" transform="translate(-752 -69)" fill="url(#a)"/></g><path d="M798.14,150.042,754,178.785V71h87.254v54.816Z" transform="translate(19.996 1.883)" fill="#fafafa"/><path d="M723,191.175H873.9L723,107Z" transform="translate(19.174 2.838)" opacity="0.05"/><path d="M723,192.175H873.9L723,108Z" transform="translate(19.174 2.864)" fill="#f5f5f5"/><rect width="63.644" height="4.106" transform="translate(785.288 89.307)" fill="#fff"/><rect width="63.644" height="4.106" transform="translate(785.288 97.519)" fill="#fff"/><rect width="63.644" height="4.106" transform="translate(785.288 105.732)" fill="#045d63"/><rect width="63.644" height="4.106" transform="translate(785.288 113.944)" fill="#fff"/><rect width="63.644" height="4.106" transform="translate(785.288 122.156)" fill="#045d63"/><path d="M840.16,125.053V123l-44.9,24.955,1.222.678Z" transform="translate(21.09 3.262)" opacity="0.05"/><g transform="translate(555.368 636.442)" opacity="0.5"><rect width="178.563" height="179.641" fill="url(#a)"/></g><rect width="170.402" height="171.429" transform="translate(559.453 640.548)" fill="#f5f5f5"/><rect width="149.872" height="131.395" transform="translate(570.745 645.681)" fill="#fff"/><path d="M869.092,769.11c-41.42,0-74.936-10.563-74.936-23.61-41.42,0-74.936,9.187-74.936,20.53V815.3H869.092Z" transform="translate(-148.475 -34.122)" fill="#e0e0e0"/><circle cx="15.398" cy="15.398" r="15.398" transform="translate(680.583 659.026)" fill="#045d63"/><g transform="translate(0 328.23)" opacity="0.5"><rect width="209.41" height="148.332" fill="url(#a)"/></g><rect width="197.092" height="139.607" transform="translate(6.159 332.592)" fill="#fff"/><path d="M270.151,410.84a38.28,38.28,0,0,0-4.927.328l4.927,37.653L232.262,446.3c-.051.831-.092,1.673-.092,2.525a37.981,37.981,0,1,0,37.981-37.981Z" transform="translate(-161.391 -42.997)" fill="#e0e0e0"/><path d="M257.222,404.16a37.981,37.981,0,0,0-32.962,35.128l37.889,2.525Z" transform="translate(-161.601 -43.174)" fill="#045d63"/></svg>