<svg xmlns="http://www.w3.org/2000/svg" xmlns:xlink="http://www.w3.org/1999/xlink" width="838.018" height="593.522" viewBox="0 0 838.018 593.522"><defs><linearGradient id="a" x1="0.5" y1="1" x2="0.5" gradientUnits="objectBoundingBox"><stop offset="0" stop-color="gray" stop-opacity="0.251"/><stop offset="0.54" stop-color="gray" stop-opacity="0.122"/><stop offset="1" stop-color="gray" stop-opacity="0.102"/></linearGradient><linearGradient id="b" x1="0.5" y1="1" x2="0.5" y2="0" xlink:href="#a"/></defs><g transform="translate(0.006 0.006)"><ellipse cx="73.885" cy="11.867" rx="73.885" ry="11.867" transform="translate(204.8 569.449)" fill="#045d63" opacity="0.1"/><ellipse cx="92.196" cy="11.867" rx="92.196" ry="11.867" transform="translate(588.114 569.783)" fill="#045d63" opacity="0.1"/><path d="M60.577,396.83h76.955V501.72H66.211c-.19,1.077-.372,2.161-.569,3.245h71.89v84.591c-.129-.038-.243-.083-.364-.129-2.032-.8-4.049-1.653-6.066-2.563l-1.289-.584q-3.033-1.433-6.066-3.033c-.705-.372-1.41-.758-2.108-1.153A126.188,126.188,0,0,1,91.4,558.468c-.258-.25-.5-.516-.758-.758-1.228-1.334-2.434-2.684-3.6-4.064l-1.289-1.516c-1.38-1.691-2.715-3.427-4.011-5.187-.19-.258-.372-.516-.569-.758A112.891,112.891,0,0,1,68.129,522.6c-.106-.25-.2-.523-.3-.758q-1.562-4.019-2.768-8.113c-.349-1.145-.682-2.275-.971-3.465-.106-.349-.2-.69-.281-1.031C59.508,492.423,59,474.961,59,457.619v-6.066c0-7.014.083-14.073.2-21.125,0-1.827.076-3.647.114-5.482q.159-6.983.455-13.967c.045-1.3.106-2.586.174-3.875a21.944,21.944,0,0,1,.114-2.229C60.244,402.176,60.4,399.5,60.577,396.83Z" transform="translate(-49.967 -140.389)" fill="#045d63" opacity="0.1"/><path d="M149.112,225.8H106.9a319.99,319.99,0,0,1,22.452-30.907c6.271-7.7,12.89-15.211,19.76-22.444Z" transform="translate(-61.546 -86.147)" fill="#045d63" opacity="0.1"/><path d="M138.113,247.09v110.3H61.4c0-.318.053-.645.076-.963.068-.872.136-1.744.212-2.608.083-1.016.174-2.04.273-3.033s.2-2.207.318-3.306.22-2.214.349-3.314.243-2.2.379-3.291.258-2.2.4-3.291c.114-.91.235-1.812.356-2.722.174-1.281.356-2.57.554-3.844a3.546,3.546,0,0,1,.083-.569,262.28,262.28,0,0,1,5.649-27.692A204.789,204.789,0,0,1,79.568,274.7a210.608,210.608,0,0,1,14.316-27.57Z" transform="translate(-50.547 -104.191)" fill="#045d63" opacity="0.1"/><path d="M186.8,315.063v104.9H351.167v-104.9Zm0,108.135v90.081c.94.2,1.873.387,2.8.546,1.259.243,2.51.463,3.791.652.243.038.493.076.758.1.5.083,1.016.152,1.516.22,1.266.174,2.525.318,3.791.432.6.061,1.206.114,1.812.159l1.463.114h0c.8.061,1.585.106,2.366.129.485,0,.971.045,1.471.061h5.406c.652,0,1.3,0,1.949-.061h.046a10.209,10.209,0,0,0,1.357-.061,3.169,3.169,0,0,0,.379,0,7.845,7.845,0,0,0,1.122-.053h.265l2.54-.2c.834-.076,1.676-.174,2.525-.265l1.729-.2A151.239,151.239,0,0,0,244.7,510.42c15.332-4.277,30.33-10.259,45.655-14.642,19.813-5.649,41.7-8.424,60.85-1.517V423.2ZM351.167,198.284V58.636a211.3,211.3,0,0,0-53.4,6.263C256.143,75.356,218.8,98.035,186.8,127v71.276h8.25v3.238H186.8V311.825H351.167v-110.3H228.921v-3.238Zm211.121-47.171c-10.3-.364-20.534-3.624-29.792-8.659-17.705-9.63-31.847-24.5-47.649-37.048C452.015,79.268,411.3,63.5,369.525,59.584v138.7H604.167l.584-.614Zm21.375-3.791,22.664,24.871V140.8c-7.59.94-14.24,3.177-22.634,6.491Zm22.664,388.326V423.2H558.035c-.129-.478-.258-.963-.409-1.448.144.485.265.971.4,1.448H369.555v81.323c1.789,1.327,3.556,2.722,5.308,4.14h0c1.888,1.517,3.753,3.116,5.626,4.686l1.888,1.562c.9.758,1.812,1.516,2.73,2.229q2.73,2.214,5.512,4.367c.918.758,1.858,1.441,2.79,2.154a380.056,380.056,0,0,0,46.731,30.565q5.482,3.033,11.063,5.922c2.479,1.266,4.974,2.525,7.476,3.746q5.641,2.752,11.374,5.308h0A417.683,417.683,0,0,0,580.76,601.449q12.731,1.88,25.561,2.957V535.64h.758ZM369.555,201.522v110.3h236.8v-110.3Zm0,113.541v104.9h236.8v-104.9Zm255.184-174.4v35.016l28.927-31.741q-14.377-2.32-28.927-3.314Zm0,174.437V419.96h230.32v-104.9ZM854.217,543.973l.811-120.775H624.739V605.612a413.019,413.019,0,0,0,44.51-.531h.258q10.615-.667,21.133-1.941h.159A389.17,389.17,0,0,0,799.38,574.167M899.47,332.336c-.865-2.04-1.767-4.064-2.684-6.066-1.714-3.791-3.526-7.476-5.391-11.162H873.424V419.96h45.435c-.023-29.693-7.537-60.023-19.366-87.662Zm-26.046,90.9V527.117a148.815,148.815,0,0,0,31.4-42.349c9.364-19.32,13.649-40.241,14-61.548Zm0-138.7v27.3h16.287A295.706,295.706,0,0,0,873.447,284.5Zm-156.2-123.293c-1.2-.455-2.4-.917-3.6-1.365a328.785,328.785,0,0,0-38.906-11.692l-44.267,48.581h0l-.849.9.569.622h157.55a336.977,336.977,0,0,0-70.472-37.086Zm75.113,40.317H627.969l-3.23,2.957V311.825H855.089V259.847a328.169,328.169,0,0,0-62.731-58.325Z" transform="translate(-80.862 -58.63)" fill="#045d63" opacity="0.1"/><path d="M138.113,320.46v54.663H61.4c0-.318.053-.645.076-.963.068-.872.136-1.744.212-2.608.083-1.016.174-2.04.273-3.033s.2-2.207.318-3.306.22-2.214.349-3.314.243-2.2.379-3.291.258-2.2.4-3.291c.114-.91.235-1.812.356-2.722.174-1.281.356-2.57.554-3.844a3.546,3.546,0,0,1,.083-.569,262.277,262.277,0,0,1,5.649-27.692Z" transform="translate(-50.547 -121.927)" fill="#045d63" opacity="0.1"/><path d="M60.577,396.83h76.955V501.72H66.211c-.19,1.077-.372,2.161-.569,3.245h71.89v84.591c-.129-.038-.243-.083-.364-.129-2.032-.8-4.049-1.653-6.066-2.563l-1.289-.584q-3.033-1.433-6.066-3.033c-.705-.372-1.41-.758-2.108-1.153A126.188,126.188,0,0,1,91.4,558.468c-.258-.25-.5-.516-.758-.758-1.228-1.334-2.434-2.684-3.6-4.064l-1.289-1.516c-1.38-1.691-2.715-3.427-4.011-5.187-.19-.258-.372-.516-.569-.758A112.891,112.891,0,0,1,68.129,522.6c-.106-.25-.2-.523-.3-.758q-1.562-4.019-2.768-8.113c-.349-1.145-.682-2.275-.971-3.465-.106-.349-.2-.69-.281-1.031C59.508,492.423,59,474.961,59,457.619v-6.066c0-7.014.083-14.073.2-21.125,0-1.827.076-3.647.114-5.482q.159-6.983.455-13.967c.045-1.3.106-2.586.174-3.875a21.944,21.944,0,0,1,.114-2.229C60.244,402.176,60.4,399.5,60.577,396.83Z" transform="translate(-49.967 -140.389)" fill="#045d63" opacity="0.1"/><path d="M197.423,199.078v94.509H139.56V199.078h8.25v-32h33.864v32Z" transform="translate(-33.622 -40.392)" fill="#045d63" opacity="0.1"/><rect width="57.855" height="104.89" transform="translate(105.946 256.433)" fill="#045d63" opacity="0.1"/><path d="M186.8,539.44h57.863v87.2a150.966,150.966,0,0,1-20.814,4.421l-1.729.212c-.849.1-1.691.182-2.525.265s-1.7.144-2.54.2h-.265c-.364,0-.758.046-1.115.053h-.387c-.455,0-.91.046-1.365.061h0c-.645.038-1.289.046-1.949.053h-5.368l-1.463-.053c-.758,0-1.577-.083-2.366-.137h0l-1.456-.106-1.812-.167c-1.274-.114-2.54-.258-3.791-.432l-1.517-.212-.758-.106c-1.266-.2-2.517-.409-3.791-.652-.933-.159-1.858-.356-2.8-.546Z" transform="translate(-80.862 -174.864)" fill="#045d63" opacity="0.1"/><rect width="47.71" height="105.663" transform="translate(477.787 147.525)" fill="#045d63" opacity="0.1"/><path d="M617.391,338.19v104.9H380.58V397.842H506.716v26.691h62.958V338.19Z" transform="translate(-91.887 -81.757)" fill="#045d63" opacity="0.1"/><path d="M665.382,651.443h-.758v68.812q-12.814-1.084-25.553-2.95a417.7,417.7,0,0,1-110.751-32.317q-15.264-6.87-29.906-15a381.62,381.62,0,0,1-46.739-30.565q-5.581-4.277-11.017-8.75c-2.51-2.07-5-4.193-7.53-6.256-1.752-1.418-3.518-2.813-5.308-4.148V538.978H616.285c-.129-.485-.258-.971-.394-1.448.144.478.281.963.409,1.448h48.324V651.4C664.881,651.405,665.131,651.428,665.382,651.443Z" transform="translate(-139.127 -174.403)" fill="#045d63" opacity="0.1"/><path d="M894.308,230.556H863.22V220.9h13.937V192.12q1.812.66,3.609,1.357V220.9h13.542Z" transform="translate(-244.382 -90.902)" fill="#045d63" opacity="0.1"/><path d="M945.31,357.386H792.688l.053.038-.068-.038H764.36V251.723h8.022v78.1h36.662V283.57h30.285V247.09h31.089V283.6H900.7v46.254H945.31Z" transform="translate(-220.483 -104.191)" fill="#045d63" opacity="0.1"/><path d="M764.36,396.82v104.9H945.31V396.82ZM994.43,625.192l.25-83.029H945.31V505.008H764.36V687.369a413.037,413.037,0,0,0,44.51-.531h.258q10.616-.667,21.133-1.941h.159A389.175,389.175,0,0,0,939,655.924" transform="translate(-220.483 -140.387)" fill="#045d63" opacity="0.1"/><path d="M1095.555,539.44h42.212c-.371,21.3-4.648,42.22-14,61.54a148.863,148.863,0,0,1-31.392,42.349V576.6h3.185Z" transform="translate(-299.777 -174.864)" fill="#045d63" opacity="0.1"/><path d="M1138.8,507.212H1096.57V419.55h22.854C1131.252,447.188,1138.767,477.519,1138.8,507.212Z" transform="translate(-300.793 -145.882)" fill="#045d63" opacity="0.1"/><rect width="25.561" height="33.128" transform="translate(499.944 176.9)" fill="#045d63" opacity="0.1"/><rect width="25.561" height="7.628" transform="translate(499.944 245.567)" fill="#045d63" opacity="0.1"/><rect width="25.561" height="22.255" transform="translate(499.944 256.433)" fill="#045d63" opacity="0.1"/><rect width="25.561" height="33.128" transform="translate(499.944 314.235)" fill="#045d63" opacity="0.1"/><rect width="25.561" height="33.128" transform="translate(499.944 382.903)" fill="#045d63" opacity="0.1"/><path d="M731.973,679.594a4.2,4.2,0,0,1,.758.046h-.758v7.7H706.42V654.17h25.553Z" transform="translate(-206.476 -202.599)" fill="#045d63" opacity="0.1"/><path d="M731.973,744.71V770.3q-12.815-1.084-25.553-2.95V744.71Z" transform="translate(-206.476 -224.487)" fill="#045d63" opacity="0.1"/><rect width="109.545" height="2.434" transform="translate(288.693 358.896)" fill="#045d63" opacity="0.1"/><rect width="109.545" height="9.327" transform="translate(288.693 364.568)" fill="#045d63" opacity="0.1"/><rect width="109.545" height="14.998" transform="translate(288.693 404.468)" fill="#045d63" opacity="0.1"/><path d="M539.047,652.15v15H453.365q-5.581-4.261-11.025-8.75c-2.51-2.07-5-4.193-7.529-6.248Z" transform="translate(-140.817 -202.111)" fill="#045d63" opacity="0.1"/><path d="M559.864,712.233v14.983h-9.046q-15.249-6.877-29.9-15.006Z" transform="translate(-161.633 -216.63)" fill="#045d63" opacity="0.1"/><rect width="21.565" height="21.565" transform="translate(588.394 266.601)" fill="#045d63" opacity="0.1"/><rect width="21.565" height="21.565" transform="translate(121.475 166.125)" fill="#045d63" opacity="0.1"/><rect width="21.565" height="21.565" transform="translate(121.475 216.215)" fill="#045d63" opacity="0.1"/><rect width="21.565" height="21.565" transform="translate(121.475 266.306)" fill="#045d63" opacity="0.1"/><rect width="21.565" height="21.565" transform="translate(121.475 316.389)" fill="#045d63" opacity="0.1"/><rect width="21.565" height="21.565" transform="translate(121.475 366.479)" fill="#045d63" opacity="0.1"/><rect width="21.565" height="21.565" transform="translate(121.475 416.569)" fill="#045d63" opacity="0.1"/><rect width="21.565" height="21.565" transform="translate(670.718 266.601)" fill="#045d63" opacity="0.1"/><rect width="21.565" height="21.565" transform="translate(588.394 319.793)" fill="#045d63" opacity="0.1"/><rect width="21.565" height="21.565" transform="translate(670.718 319.793)" fill="#045d63" opacity="0.1"/><rect width="21.565" height="21.565" transform="translate(588.394 372.977)" fill="#045d63" opacity="0.1"/><rect width="21.565" height="21.565" transform="translate(670.718 372.977)" fill="#045d63" opacity="0.1"/><rect width="21.565" height="21.565" transform="translate(588.394 426.169)" fill="#045d63" opacity="0.1"/><rect width="21.565" height="21.565" transform="translate(670.718 426.169)" fill="#045d63" opacity="0.1"/><rect width="21.565" height="21.565" transform="translate(588.394 479.361)" fill="#045d63" opacity="0.1"/><rect width="21.565" height="21.565" transform="translate(670.718 479.361)" fill="#045d63" opacity="0.1"/><path d="M775.83,716.236V702.33h21.557v11.927Z" transform="translate(-187.436 -169.785)" fill="#045d63" opacity="0.1"/><path d="M65.24,357v12.337h73.8V357ZM72.6,368.563H66.575V357.758h6.066Zm7.348,0H73.877V357.758h6.066Zm7.332,0H81.209V357.758h6.066Zm7.348,0H88.564V357.758H94.63Zm7.34,0H95.9V357.758h6.066Zm7.347,0h-6.066V357.758h6.066Zm7.348,0h-6.066V357.758h6.066Zm7.34,0h-6.066V357.758H124Zm7.34,0h-6.066V357.758h6.066Zm7.34,0h-6.066V357.758h6.066Z" transform="translate(-51.475 -130.76)" fill="#045d63" opacity="0.1"/><path d="M65.24,404.34v12.337h73.8V404.34ZM72.6,415.9H66.575V405.121h6.066Zm7.348,0H73.877V405.121h6.066Zm7.332,0H81.209V405.121h6.066Zm7.348,0H88.564V405.121H94.63Zm7.34,0H95.9V405.121h6.066Zm7.347,0h-6.066V405.121h6.066Zm7.348,0h-6.066V405.121h6.066Zm7.34,0h-6.066V405.121H124Zm7.34,0h-6.066V405.121h6.066Zm7.34,0h-6.066V405.121h6.066Z" transform="translate(-51.475 -142.205)" fill="#045d63" opacity="0.1"/><path d="M65.24,451.7v12.36h73.8V451.7ZM72.6,463.256H66.575V452.473h6.066Zm7.348,0H73.877V452.473h6.066Zm7.332,0H81.209V452.473h6.066Zm7.348,0H88.564V452.473H94.63Zm7.34,0H95.9V452.473h6.066Zm7.347,0h-6.066V452.473h6.066Zm7.348,0h-6.066V452.473h6.066Zm7.34,0h-6.066V452.473H124Zm7.34,0h-6.066V452.473h6.066Zm7.34,0h-6.066V452.473h6.066Z" transform="translate(-51.475 -153.654)" fill="#045d63" opacity="0.1"/><path d="M65.24,499.06v12.322h73.8V499.06ZM72.6,510.616H66.575v-10.79h6.066Zm7.348,0H73.877v-10.79h6.066Zm7.332,0H81.209v-10.79h6.066Zm7.348,0H88.564v-10.79H94.63Zm7.34,0H95.9v-10.79h6.066Zm7.347,0h-6.066v-10.79h6.066Zm7.348,0h-6.066v-10.79h6.066Zm7.34,0h-6.066v-10.79H124Zm7.34,0h-6.066v-10.79h6.066Zm7.34,0h-6.066v-10.79h6.066Z" transform="translate(-51.475 -165.103)" fill="#045d63" opacity="0.1"/><path d="M65.66,546.41c.3,1.16.629,2.32.978,3.465v-2.692H72.7v10.782H69.459c.1.25.2.523.3.758h69.388V546.41Zm14.407,11.556H74V547.183h6.066Zm7.332,0H81.333V547.183H87.4Zm7.348,0H88.665V547.183h6.066Zm7.34,0H96.021V547.183h6.066Zm7.348,0h-6.066V547.183h6.066Zm7.347,0h-6.066V547.183h6.066Zm7.34,0h-6.066V547.183h6.066Zm7.34,0H125.4V547.183h6.066Zm7.34,0h-6.066V547.183H138.8Z" transform="translate(-51.577 -176.549)" fill="#045d63" opacity="0.1"/><path d="M88.26,593.77c.19.243.372.516.569.758H92.84v5.179c.432.516.857,1.031,1.3,1.516V594.5H100.2v10.82H97.746c.243.25.478.516.758.758h46.125V593.77Zm19.267,11.548h-6.066V594.543h6.066Zm7.347,0h-6.066V594.543h6.066Zm7.348,0h-6.066V594.543h6.066Zm7.34,0H123.5V594.543h6.066Zm7.34,0h-6.066V594.543H136.9Zm7.34,0h-6.066V594.543h6.066Z" transform="translate(-57.04 -187.998)" fill="#045d63" opacity="0.1"/><path d="M141.65,641.12c.69.394,1.4.758,2.108,1.153v-.379h6.066v3.412l1.289.6v-4.011h6.066v6.559a1.9,1.9,0,0,0,.364.137V641.12Z" transform="translate(-69.947 -199.445)" fill="#045d63" opacity="0.1"/><path d="M655.707,356.344ZM609,580.136ZM560.265,466.268c.144.485.265.971.4,1.448h0C560.546,467.239,560.417,466.754,560.265,466.268Zm95.442-109.947ZM197.72,242.78v3.238h33.871V242.78ZM609,580.136ZM560.265,466.268c.144.485.265.971.4,1.448h0C560.546,467.239,560.417,466.754,560.265,466.268Zm95.442-109.947ZM609,580.113ZM560.265,466.268c.144.485.265.971.4,1.448h0C560.546,467.239,560.417,466.754,560.265,466.268Z" transform="translate(-83.502 -103.149)" fill="#045d63" opacity="0.1"/><path d="M457.3,385.082s-2.987-.417-2.987-4.77-2.138-12.481-2.138-12.481h0c0-.038-1.85-14.157-4.405-16.4s-5.839-15.423-5.839-15.423-.561-7.15-1.706-8.69-2.692-5.308-4.974-10.684-11.8-9.1-11.8-9.1-17.2-9.979-22.08-13.232h0a7.479,7.479,0,0,1-1.236-.933c-.849-1.115-4.55-1.137-4.55-1.137a74.529,74.529,0,0,1-.879-7.787,5.915,5.915,0,0,0-.038-.819,26.235,26.235,0,0,0,11.533-14.27c.091-.288.167-.591.25-.88a2.464,2.464,0,0,0,1.479-1.335c.44-.978.447-2.123.993-3.033.637-1.077,1.85-1.653,2.806-2.464,2.411-2.047,3.033-5.5,2.919-8.637-.076-2.54-.485-5.1-.326-7.628l.046-.637c.045-.379.1-.758.167-1.122.371-1.88,1.183-3.655,1.638-5.52a7.1,7.1,0,0,0-.561-5.573c-1.554-2.358-4.792-2.828-7.636-3.071-3.223-.273-6.1.083-8.166-2.593a29.109,29.109,0,0,0-3.245-3.92c-.425-.394-4.549-2.912-4.549-3.078a18.433,18.433,0,0,0-12.852-.986c-2.138.622-4.155,1.638-6.324,2.146-4.678,1.107-10.062-.091-14.035,2.586-2.214,1.516-3.541,3.928-4.785,6.278q-1.516,2.9-3.079,5.8c-1.676,3.177-3.382,6.407-4.087,9.926a15.763,15.763,0,0,0-.273,2.32h0v1.236a4.078,4.078,0,0,0,.046.758c.046.235.038.311.061.47s.061.516.106.758.136.667.227,1c.038.144.091.281.137.417.076.258.167.508.265.758.053.129.106.265.167.394a7.1,7.1,0,0,0,.387.758c.061.106.106.2.167.3a10.057,10.057,0,0,0,.7,1.016c1.623,2.025,4.011,3.314,5.778,5.209v.849a25.955,25.955,0,0,0,11.814,21.193c0,.288.038.584.053.872a43.4,43.4,0,0,1-.084,6.756,3.185,3.185,0,0,0-2.517-1.122,3.633,3.633,0,0,0-.971.083l-.068-.053h0v.068c-1.668.409-3.723,2.146-5.687,7.082,0,0-5.975,6.733-10.525,6.453s-16.067,7.006-16.067,7.006-11.237,7.294-13.649,14.725a103.788,103.788,0,0,1-4.838,12.344L298.183,365.9h0l-2.563,22.71s1.418,10.1,1.137,11.639,5.831,15.423,5.831,15.423,20.192,35.479,28.442,37.3l.592-.417a4.838,4.838,0,0,0,1.115.417l1.7-1.2a18.509,18.509,0,0,1-.129,4c-1.137,3.5.425,26.365,2.411,30.846S338,549.859,338,549.859l-.281,5.187a2.2,2.2,0,0,0,.068.455l-.068,1.228.2.106a14.6,14.6,0,0,1-.2,4.936c-.713,2.275-1,8.7-1,8.7s-5.679,36.305-2.988,43.6,4.982,15.286,4.982,15.286,2.843,9.1.136,10.654-10.4,4.163-8.818,7.954c1.441,3.5,6.908,12.89,7.719,14.263l-.068.72-1.115,12.079a15.167,15.167,0,0,0,1.281,4.61c1.221,2.631,3.594,5.361,8.106,5.065.758-.053,1.638-.144,2.487-.258,8.257-1.107,18.426-4.792,18.426-4.792a7.513,7.513,0,0,1-1.441-1.19h0a4.164,4.164,0,0,1-1.266-3.033c.121-2.2-4-12.678-5.02-15.256-.159-.372-.243-.584-.243-.584s9.387-9.812,7.825-18.509c0,0-10.388-6.066-6.968-9.395s9.531-12.89,9.531-12.89.281-35.752,0-41.09a44.2,44.2,0,0,1,.523-11.093c.114-.554.25-1.092.394-1.623a98.986,98.986,0,0,0,14.286,1.084c1.744,0,3.518,0,5.308-.106q0,.758.068,1.638c.394,8.856,1.13,24.385,1.729,30.156.849,8.273,5.543,30.565,5.543,30.565s-8.955,5.748,1.562,19.912c0,0,0,5.133-.7,5.877h0a64.288,64.288,0,0,0-1.8,7.4c-.44,2.669-.622,5.368.091,6.771,1.706,3.352,11.943,3.078,11.943,3.078h0l.25-.045a14.673,14.673,0,0,1,10.835,3.268c3.89,3.124,18.653,1.752,26.645.758,3.132-.394,5.224-.758,5.224-.758a3.034,3.034,0,0,0,.106-1.092h0c-.083-1.964-1.623-6.271-12.056-10.115,0,0-9.812-6.6-9.675-12.345h-1.342a10.716,10.716,0,0,1,1.357,0s-3.844-14.028-2.275-15.165-3.132-16.682-3.132-16.682-2.692-26.084-2.836-27.911a15.919,15.919,0,0,1,.705-4.625l-.705-14.3s-.137-4.754,0-6.3a31.488,31.488,0,0,0-.326-4.011c-.068-.531-.137-1.084-.212-1.63,3.678-.933,6.066-1.8,6.066-1.8l-.425-49.78c3.124-6.066,3.7-19.373,3.685-28.814,0-6.066-.273-10.555-.273-10.555l4.269-6.968s.986-8.341-.576-10.168a1.751,1.751,0,0,1,.19-2.388,7.933,7.933,0,0,1,.933-.637s-.046-.068-.1-.167a7.536,7.536,0,0,1,.948-.675s-1.517-2.351-.159-3.344c1.274.864,2.411,1.517,3.276,2.047-.061.554-.121.872-.121.872l.364-.758c.834.47,1.342.758,1.342.758s6.688-13.323,6.544-15.286,4.549-10.236,4.549-10.236.569-4.345,3.132-6.165,1.987-15.006,1.987-15.006.713-6.87,2.419-9.675S457.3,385.082,457.3,385.082Zm-127.963-5.846.129,3.177-1.3-2.1Z" transform="translate(-107.168 -97.197)" fill="url(#a)"/><path d="M481.172,507.375l-1.638,6.976s-13.118-6.7-15.484-15.2,3.958-11.738,3.958-11.738l12.223,5.179Z" transform="translate(-147.757 -162.286)" fill="#fff"/><path d="M481.172,507.375l-1.638,6.976s-13.118-6.7-15.484-15.2,3.958-11.738,3.958-11.738l12.223,5.179Z" transform="translate(-147.757 -162.286)" opacity="0.1"/><path d="M380.248,818.043s-12.132,4.458-20.473,5.02c-4.428.3-6.756-2.419-7.954-5.035a15.24,15.24,0,0,1-1.251-4.587l1.084-12.018.576-6.4,17.72-4.6,2.51,7.674.235.584c1.008,2.563,5.05,12.989,4.929,15.165a4.14,4.14,0,0,0,1.243,3A7.207,7.207,0,0,0,380.248,818.043Z" transform="translate(-120.452 -235.537)" fill="#fff"/><path d="M481.637,811.678a3.034,3.034,0,0,1-.106,1.084s-25.948,4.33-31.255,0a14.058,14.058,0,0,0-10.919-3.2s-10.039.273-11.715-3.033c-.7-1.388-.516-4.079-.083-6.733a64.14,64.14,0,0,1,1.759-7.363l.4-.319,2.388-1.918,27.964-.827h.212c-.136,5.717,9.493,12.276,9.493,12.276C480.007,805.437,481.515,809.722,481.637,811.678Z" transform="translate(-138.971 -235.283)" fill="#fff"/><path d="M481.638,815a3.092,3.092,0,0,1-.114,1.084s-25.94,4.33-31.248,0a14.059,14.059,0,0,0-10.911-3.2s-10.047.273-11.715-3.033c-.7-1.4-.523-4.08-.091-6.733,3.867.387,9.971,1.35,12.367,3.647,3.624,3.5,9.766,6.984,13.535,7.257C456.411,814.213,474.055,814.774,481.638,815Z" transform="translate(-138.972 -238.607)" opacity="0.1"/><path d="M380.649,826.478s-12.132,4.458-20.473,5.02c-4.428.3-6.756-2.419-7.947-5.042,3.086,1.039,7.37,2.131,9.622,1.13,2.669-1.183,12.132-1.949,17.44-2.275a7.472,7.472,0,0,0,1.357,1.168Z" transform="translate(-120.853 -243.971)" opacity="0.1"/><path d="M407.019,338.5c-10.009-3.89-22.884-16.742-19.669-22.748a13.439,13.439,0,0,0,1.251-4.822,44.048,44.048,0,0,0,.091-6.824A93.462,93.462,0,0,0,387.35,293s31.248.705,29.428,5.308a17.21,17.21,0,0,0-.47,6.316c.144,2.624.523,5.588.918,8.1.546,3.442,1.092,6.066,1.092,6.066s-1.911,2.677-3.033,2.821S421.38,344.038,407.019,338.5Z" transform="translate(-129.222 -115.289)" fill="#cf6f80"/><path d="M373.012,798.677l-.235.258c-9.342-11.3-20.64,2.783-20.64,2.783l-.167-.3.576-6.4,17.72-4.6,2.51,7.674Z" transform="translate(-120.79 -235.537)" opacity="0.1"/><path d="M460.979,790.156s-6.824-.144-10.464,3.071-21.231.7-20.473,0a2.5,2.5,0,0,0,.394-1.153l2.388-1.918,27.964-.827C460.9,789.838,460.979,790.156,460.979,790.156Z" transform="translate(-139.658 -235.273)" opacity="0.1"/><path d="M382.175,668.635a21.093,21.093,0,0,0-1.152,3.89,44.517,44.517,0,0,0-.523,11.04c.281,5.308,0,40.878,0,40.878s-6,9.486-9.342,12.83,6.824,9.349,6.824,9.349c1.516,8.644-7.674,18.411-7.674,18.411-9.342-11.3-20.64,2.79-20.64,2.79s-6.142-10.616-7.674-14.407,6-6.415,8.644-7.954-.129-10.615-.129-10.615-2.237-7.954-4.891-15.211,2.927-43.38,2.927-43.38.288-6.415.978-8.652a14.466,14.466,0,0,0,.2-4.913c-.046-.553-.1-1.016-.136-1.327s-.068-.455-.068-.455l.106-.182,3.791-7.067S383.995,664.185,382.175,668.635Z" transform="translate(-118.33 -202.476)" fill="#045d63"/><path d="M458.366,758.889s-6.824-.144-10.464,3.033-21.231.7-20.473,0,.7-5.861.7-5.861c-10.32-14.088-1.516-19.806-1.516-19.806s-4.61-22.179-5.444-30.406c-.584-5.748-1.3-21.193-1.691-30.012-.167-3.791-.265-6.4-.265-6.4l8.432-1.7,1.084-.22,20.336-4.079s.561,3.791.94,6.893a32.207,32.207,0,0,1,.318,4c-.136,1.517,0,6.263,0,6.263l.69,14.232a16.165,16.165,0,0,0-.69,4.6c.137,1.812,2.783,27.76,2.783,27.76s4.6,15.484,3.033,16.6S458.366,758.889,458.366,758.889Z" transform="translate(-137.045 -204.84)" fill="#045d63"/><path d="M416.938,298.308a17.209,17.209,0,0,0-.47,6.316,25.97,25.97,0,0,1-27.616-.516A93.457,93.457,0,0,0,387.51,293S418.758,293.69,416.938,298.308Z" transform="translate(-129.382 -115.289)" opacity="0.1"/><path d="M425.71,269.628a25.681,25.681,0,0,1-1.274,8.045,25.948,25.948,0,0,1-50.606-7.423v-.622a25.946,25.946,0,1,1,51.891,0Z" transform="translate(-126.075 -103.366)" fill="#cf6f80"/><path d="M407.019,344.21c-10.009-3.89-22.884-16.742-19.669-22.748a13.438,13.438,0,0,0,1.251-4.823l13.7,11.26,8.477,6.953,6.445-16.409c.546,3.442,1.092,6.066,1.092,6.066s-1.911,2.677-3.033,2.821S421.38,349.753,407.019,344.21Z" transform="translate(-129.222 -121.004)" opacity="0.1"/><path d="M392.215,334.96,380.773,527.178l-14.922.978L327.21,416.7l6.339-132.323,1.334-27.957,17.182,14.111,8.485,6.953,6.635-16.886,12.337,10.752Z" transform="translate(-78.985 -61.989)" fill="#045d63"/><path d="M384.643,668.655a21.086,21.086,0,0,0-1.152,3.89,109.946,109.946,0,0,1-31.286-9.774l-.2-.106.068-1.221.038-.637,3.791-7.067S386.463,664.2,384.643,668.655Z" transform="translate(-120.798 -202.495)" opacity="0.1"/><path d="M427.8,676.3a76.749,76.749,0,0,1-8.386.955c-.167-3.791-.265-6.4-.265-6.4l8.432-1.7Z" transform="translate(-137.031 -206.223)" opacity="0.1"/><path d="M452.977,670.383c-5.391,1.4-13.717,2.98-21.17,1.994l-.106-4.807,20.336-4.079S452.6,667.243,452.977,670.383Z" transform="translate(-140.065 -204.852)" opacity="0.1"/><path d="M400.316,589.012c-31.089,5.308-59.561-9.91-59.561-9.91l.273-5.156s.705-58.454-1.251-62.935S336.3,483.8,337.4,480.316s-4.042-55.792-4.042-55.792l-.834-21.231L302,390.925l13.649-28.45a102.658,102.658,0,0,0,4.747-12.284c2.373-7.385,13.391-14.642,13.391-14.642s11.3-7.249,15.764-6.976,10.32-6.415,10.32-6.415c4.322-11.017,8.235-6.028,8.235-6.028a9.838,9.838,0,0,1-.212,1.63c-1.517,12.094,24.522,50.31,24.894,50.985h0l2.479,60.4,2.51,76.44Z" transform="translate(-108.711 -120.608)" opacity="0.1"/><path d="M399.208,589c-31.089,5.308-59.569-9.911-59.569-9.911l.281-5.156s.705-58.454-1.259-62.935-3.48-27.206-2.366-30.694-4.042-55.792-4.042-55.792l-.842-21.231L300.87,390.865l13.649-28.45a104.258,104.258,0,0,0,4.747-12.284c2.366-7.385,13.391-14.642,13.391-14.642s11.3-7.249,15.757-6.976,10.32-6.415,10.32-6.415c4.33-11.017,9.1-6.028,9.1-6.028,0,.523-.455.758-.212,1.63,3.336,11.73,23.688,50.31,24.059,50.985h0l2.51,60.4,2.51,76.44Z" transform="translate(-108.437 -120.594)" fill="#fff"/><path d="M410.379,370.967c-3.344-1.4-21.057-21.618-21.057-21.618v-4.6c-.645-1.516-4.474-.591-7.583.47l1.335-27.957,1.517,1.259C387.912,330.241,409.993,370.292,410.379,370.967Z" transform="translate(-127.987 -121.154)" opacity="0.1"/><path d="M411.487,368.757c-3.351-1.4-21.064-21.618-21.064-21.618v-4.6c-.645-1.517-4.474-.592-7.583.47l1.342-27.957,1.517,1.259C389.027,328.031,411.115,368.09,411.487,368.757Z" transform="translate(-128.253 -120.619)" fill="#fff"/><path d="M352.566,518.179c.417,0,21.618-2.229,21.618-2.229s12.837,25.242,12,31.384-2.366,11.579-7.529,10.615-27.79.758-27.79.758Z" transform="translate(-120.522 -169.186)" opacity="0.1"/><path d="M351.456,515.969c.417,0,21.618-2.229,21.618-2.229s12.83,25.25,12,31.384S382.7,556.7,377.54,555.74s-27.79.758-27.79.758Z" transform="translate(-120.254 -168.651)" fill="#fff"/><path d="M369.374,501.05s19.457,10.456,19.874,13.649-9.9-1.4-12.132-1.949a27.763,27.763,0,0,0-4.466-.7l-14.869.4Z" transform="translate(-122.195 -165.584)" fill="#cf6f80"/><circle cx="2.047" cy="2.047" r="2.047" transform="translate(274.916 247.023)" opacity="0.1"/><circle cx="2.047" cy="2.047" r="2.047" transform="translate(274.916 246.189)" fill="#3f3d56"/><circle cx="2.047" cy="2.047" r="2.047" transform="translate(278.684 335.648)" opacity="0.1"/><circle cx="2.047" cy="2.047" r="2.047" transform="translate(278.684 334.807)" fill="#3f3d56"/><circle cx="2.047" cy="2.047" r="2.047" transform="translate(276.956 291.336)" opacity="0.1"/><circle cx="2.047" cy="2.047" r="2.047" transform="translate(276.956 290.502)" fill="#3f3d56"/><path d="M465.1,467.584s1.4,2.093,0,3.071.137,3.344.137,3.344-3.48,2.04-1.949,3.875S463.85,488,463.85,488l-4.186,6.93s.25,4.466.265,10.5c0,9.418-.554,22.657-3.617,28.692l.425,49.522S442.08,589,429.812,587.366l-1.82-79.465s2.654-45.063,3.632-53.707a90,90,0,0,0,.7-13.535s-.417-13.527-1.82-19.806c0,0-1.517-27.2-1.668-34.728-.068-3.6.121-14.111.334-24.1.235-10.926.5-21.231.5-21.231l-2.768-21.9s2.768-.281,3.6.834a7.984,7.984,0,0,0,1.213.933h0c4.777,3.23,21.656,13.163,21.656,13.163s9.342,3.716,11.579,9.038,3.791,9.1,4.876,10.616,1.676,8.644,1.676,8.644,3.215,13.118,5.725,15.34,4.345,16.356,4.345,16.356l-22.179,17.44s-1.949,29.011-2.366,30.133S465.1,467.584,465.1,467.584Z" transform="translate(-138.904 -121.54)" fill="#fff"/><path d="M465.926,467.507s1.388,2.093,0,3.071.129,3.344.129,3.344-3.458,2.063-1.941,3.9.561,10.123.561,10.123l-4.186,6.93s.25,4.466.273,10.5c0,9.417-.554,22.657-3.617,28.692l.417,49.522s-14.68,5.353-26.933,3.723l-1.812-79.465s2.654-45.063,3.632-53.707a89.15,89.15,0,0,0,.69-13.535s-.417-13.527-1.812-19.806c0,0-1.517-27.2-1.676-34.728-.068-3.6.129-14.111.334-24.1.235-10.927.5-21.231.5-21.231L426.83,318.54s3.655,0,4.5,1.13a7.2,7.2,0,0,0,1.213.933h0c4.777,3.23,21.664,13.163,21.664,13.163s9.334,3.716,11.571,9.038,3.791,9.1,4.883,10.616,1.668,8.644,1.668,8.644,3.215,13.118,5.725,15.34,4.322,16.325,4.322,16.325l-22.179,17.44s-1.949,29.011-2.373,30.133S465.926,467.507,465.926,467.507Z" transform="translate(-138.887 -121.463)" fill="#fff"/><path d="M439.632,347.7l2,5.839-10.54,10.616c.235-10.919.5-21.231.5-21.231L427.94,320.73s3.655,0,4.5,1.13a6.912,6.912,0,0,0,1.213.925h0l8.963,25.857Z" transform="translate(-139.156 -121.993)" opacity="0.1"/><path d="M438.522,345.491l2.009,5.839-10.54,10.616c.235-10.926.5-21.231.5-21.231L426.83,318.52s3.662,0,4.5,1.13a7.584,7.584,0,0,0,1.213.933h0l8.97,25.849Z" transform="translate(-138.887 -121.458)" fill="#fff"/><path d="M425.71,269.628a25.681,25.681,0,0,1-1.274,8.045,1.084,1.084,0,0,1-.819-.2c-.2-6.824-3.556-13.231-7.689-18.683a19.63,19.63,0,0,0-4.17-4.322,8.159,8.159,0,0,0-5.657-1.6c-2.275.311-4.284,1.858-6.582,2.055-3.033.25-5.747-1.85-8.758-1.956a8.606,8.606,0,0,0-6.438,2.988,17.662,17.662,0,0,0-3.45,6.4,37.448,37.448,0,0,0-1.926,11.04c-.038,2.123-.243,4.785-2.214,5.558a11.328,11.328,0,0,0-2.859-8.652l-.045-.046v-.622a25.946,25.946,0,1,1,51.891,0Z" transform="translate(-126.075 -103.366)" opacity="0.1"/><path d="M407.988,223.028a17.864,17.864,0,0,0-12.6-.986c-2.1.622-4.079,1.63-6.21,2.138-4.55,1.1-9.857-.091-13.762,2.57-2.169,1.517-3.473,3.913-4.686,6.24l-3.033,5.778a37.5,37.5,0,0,0-4.011,9.857c-.69,3.48-.273,7.378,1.934,10.176,1.608,2.04,3.981,3.321,5.725,5.24a11.374,11.374,0,0,1,2.851,8.644c1.979-.758,2.168-3.427,2.214-5.55a37.446,37.446,0,0,1,1.926-11.04,17.6,17.6,0,0,1,3.45-6.4,8.621,8.621,0,0,1,6.438-2.987c3.033.106,5.755,2.2,8.758,1.949,2.275-.19,4.292-1.744,6.582-2.047a8.128,8.128,0,0,1,5.657,1.6,19.428,19.428,0,0,1,4.163,4.322c4.14,5.452,7.5,11.844,7.7,18.683.857.629,2.093-.19,2.517-1.16a27.7,27.7,0,0,1,.978-3.033c.622-1.069,1.812-1.638,2.745-2.442,2.366-2.04,2.957-5.475,2.866-8.591s-.7-6.278-.106-9.342c.356-1.88,1.16-3.64,1.6-5.5a7.188,7.188,0,0,0-.546-5.543c-1.516-2.351-4.709-2.813-7.492-3.033-3.162-.273-5.99.076-8.007-2.586a29.047,29.047,0,0,0-3.185-3.9C412.045,225.7,407.988,223.2,407.988,223.028Z" transform="translate(-123.548 -97.963)" fill="#512e4e"/><path d="M310.194,429.78l-7.924-14.65-2.51,22.6s1.4,10.039,1.115,11.579,5.717,15.34,5.717,15.34,19.813,35.289,27.9,37.109l27.335-19.533-7.249-9.205s-2.51-.978-3.139,0c0,0-13.459-23.157-14.854-24.833s-1.122-5.02-1.122-5.02-2.093-2.229-1.4-4.322-4.041-9.349-4.041-9.349l4.322-4.042Z" transform="translate(-108.169 -144.813)" opacity="0.1"/><path d="M302.153,412.93,300.06,414.6l-2.51,22.6s1.4,10.039,1.115,11.579,5.725,15.339,5.725,15.339,19.806,35.289,27.9,37.109L359.628,481.7l-7.257-9.205s-2.51-.978-3.139,0c0,0-13.459-23.157-14.854-24.833s-1.115-5.02-1.115-5.02-2.093-2.229-1.4-4.322-4.049-9.349-4.049-9.349l4.322-4.042Z" transform="translate(-107.635 -144.281)" fill="#fff"/><path d="M469.847,525.4c1.516,1.843.561,10.115.561,10.115l-4.186,6.93s.25,4.474.265,10.5l-7.037,2.2a4.178,4.178,0,0,1-5.422-4.117l1.213-39.134,16.416,6.278c-1.4.971.136,3.351.136,3.351S468.315,523.562,469.847,525.4Z" transform="translate(-145.462 -168.207)" opacity="0.1"/><path d="M470.954,524.3c1.516,1.842.561,10.122.561,10.122l-4.185,6.931s.25,4.466.273,10.5l-7.166,2.237a4.095,4.095,0,0,1-5.308-4.034L456.35,510.8l16.424,6.278c-1.4.971.129,3.344.129,3.344S469.438,522.462,470.954,524.3Z" transform="translate(-145.728 -167.941)" fill="#fff"/><path d="M478.983,502.053s-1.115,7.12-3.905,7.537-4.041,11.518-6.824,11.124-.94-10.32-.842-12.246-3.033-9.9-.69-11.715,9.759,0,9.759,0Z" transform="translate(-148.32 -164.35)" fill="#cf6f80"/><path d="M484.007,428.306l5.262-10.616s2.093,8.091,2.093,12.413,2.927,4.747,2.927,4.747,3.207,3.791,1.516,6.551-2.373,9.63-2.373,9.63.553,13.11-1.956,14.922-3.033,6.142-3.033,6.142-4.61,8.227-4.466,10.183-6.415,15.2-6.415,15.2,3.207-16.462-15.484-23.574c0,0-.144-5.588,1.251-7.12s3.571-2.229,2.207-9.971-.394-16.993-.394-18.85,4.186-13.444,4.186-13.444Z" transform="translate(-147.407 -145.432)" opacity="0.1"/><path d="M486.788,415.69l4.6,1.517s2.1,8.091,2.1,12.413,2.927,4.747,2.927,4.747,3.207,3.791,1.516,6.551-2.366,9.63-2.366,9.63.553,13.11-1.956,14.922-3.071,6.142-3.071,6.142-4.6,8.227-4.459,10.183-6.422,15.2-6.422,15.2,3.215-16.462-15.484-23.574c0,0-.137-5.588,1.259-7.12s3.571-2.229,2.206-9.971-.394-16.993-.394-18.85,4.186-13.444,4.186-13.444Z" transform="translate(-147.913 -144.948)" fill="#fff"/><path d="M360.15,777.77s7.325-4.6,12.132-1.259S360.15,777.77,360.15,777.77Z" transform="translate(-122.768 -231.88)" opacity="0.1"/><path d="M435.21,759.777a14.828,14.828,0,0,1,11.927,5.027C452.582,770.666,435.21,759.777,435.21,759.777Z" transform="translate(-140.913 -228.119)" opacity="0.1"/><g transform="translate(239.835 140.026)" opacity="0.1"><path d="M430.788,270.442c-.933.8-2.131,1.38-2.753,2.449a27.742,27.742,0,0,0-.971,3.033c-.425.986-1.661,1.79-2.517,1.168-.2-6.824-3.564-13.232-7.7-18.691a19.426,19.426,0,0,0-4.163-4.322,8.151,8.151,0,0,0-5.664-1.6c-2.275.311-4.277,1.858-6.574,2.047-3.033.258-5.755-1.843-8.765-1.949a8.583,8.583,0,0,0-6.43,3,17.56,17.56,0,0,0-3.45,6.392A37.488,37.488,0,0,0,379.879,273c-.045,2.116-.243,4.754-2.2,5.543a10.382,10.382,0,0,1,0,1.683c1.972-.758,2.169-3.427,2.214-5.55a37.439,37.439,0,0,1,1.926-11.04,17.6,17.6,0,0,1,3.45-6.4,8.606,8.606,0,0,1,6.43-2.988c3.033.106,5.763,2.2,8.765,1.949,2.275-.19,4.292-1.744,6.574-2.047a8.151,8.151,0,0,1,5.664,1.6,19.423,19.423,0,0,1,4.163,4.322c4.133,5.452,7.5,11.844,7.7,18.683.857.629,2.093-.19,2.517-1.16a29.427,29.427,0,0,1,.971-3.033c.622-1.069,1.82-1.638,2.753-2.442,2.366-2.04,2.957-5.475,2.866-8.591v-.288C433.526,265.945,432.805,268.7,430.788,270.442Z" transform="translate(-366.84 -245.51)"/><path d="M371.358,271.822c-1.744-1.918-4.125-3.2-5.725-5.232a11.1,11.1,0,0,1-2.207-6.21,11.676,11.676,0,0,0,2.207,7.878c1.6,2.04,3.981,3.321,5.725,5.24a11.373,11.373,0,0,1,2.859,6.764,11.374,11.374,0,0,0-2.859-8.439Z" transform="translate(-363.385 -247.429)"/><path d="M452.876,244.8c-.447,1.858-1.244,3.624-1.608,5.5a17.51,17.51,0,0,0-.235,3.791,14.729,14.729,0,0,1,.235-2.153c.364-1.88,1.16-3.64,1.607-5.5a9.329,9.329,0,0,0,.25-3.139,10.528,10.528,0,0,1-.25,1.5Z" transform="translate(-384.569 -243.3)"/></g><ellipse cx="73.885" cy="11.867" rx="73.885" ry="11.867" transform="translate(26.875 552.987)" fill="#045d63" opacity="0.1"/><rect width="4.754" height="107.043" transform="translate(98.386 337.529)" fill="#535461"/><path d="M201.946,642.194l-.3,4.823-.425,6.824-.174,2.836-.417,6.824-.182,2.836-.425,6.824-4.792,77.4a13.118,13.118,0,0,1-13.088,12.3H157.232a13.11,13.11,0,0,1-13.08-12.3l-4.769-77.448-.425-6.824-.174-2.836-.425-6.824-.174-2.836-.425-6.824-.3-4.823a6.824,6.824,0,0,1,6.824-7.211h50.962a6.779,6.779,0,0,1,6.7,7.264Z" transform="translate(-68.931 -197.948)" fill="#3f3d56"/><path d="M154.5,592.24l-.425,6.8H91l-.425-6.8Z" transform="translate(-21.781 -143.172)" fill="#9d9cb5"/><path d="M154.093,604.95l-.417,6.809H91.795l-.425-6.809Z" transform="translate(-21.972 -146.244)" fill="#9d9cb5"/><path d="M153.685,617.68l-.417,6.8H92.585l-.425-6.8Z" transform="translate(-22.163 -149.322)" fill="#9d9cb5"/><path d="M108.79,549.93c27.684,20.033,39.24,51.364,39.24,51.364s-33.363-1.145-61.055-21.178S47.75,528.76,47.75,528.76,81.1,529.9,108.79,549.93Z" transform="translate(-47.247 -172.282)" fill="#045d63"/><path d="M47.72,528.76S82.357,547.982,93.466,563.9s54.557,37.4,54.557,37.4" transform="translate(-47.24 -172.282)" fill="none" stroke="#535461" stroke-miterlimit="10" stroke-width="2"/><path d="M141.227,499.786c15.067,10.9,21.368,27.949,21.368,27.949s-18.16-.622-33.234-11.518S108,488.26,108,488.26,126.153,488.882,141.227,499.786Z" transform="translate(-61.812 -162.492)" fill="#045d63"/><path d="M108,488.26s18.85,10.464,24.894,19.123,29.7,20.352,29.7,20.352" transform="translate(-61.812 -162.492)" fill="none" stroke="#535461" stroke-miterlimit="10" stroke-width="2"/><path d="M202.163,531.2c-17.311,19.025-20.973,43.888-20.973,43.888s24.408-5.99,41.7-25.022,20.973-43.888,20.973-43.888S219.474,512.178,202.163,531.2Z" transform="translate(-79.505 -166.824)" fill="#045d63"/><path d="M243.883,506.19s-22.551,19.5-28.283,32.939-34.41,35.964-34.41,35.964" transform="translate(-79.506 -166.826)" fill="none" stroke="#535461" stroke-miterlimit="10" stroke-width="2"/><path d="M992.653,465.887s-12.519-62.283-7.727-70.032c0,0,.174-7.2-.114-16.386v-1.054a23.332,23.332,0,0,0,2.631,1.517,21.292,21.292,0,0,0,14.331,1.85l-3.791-4.224a7,7,0,0,1-2.055-3.435,7.194,7.194,0,0,1,.819-3.715c3.6-9.1,3.791-20.541-3.147-27.487-5.861-5.839-7.287-13.376-13.649-18.706-4.648-3.905-7.2-9.63-9.615-15.165a85.3,85.3,0,0,1-5.262-14.354c-.91-3.875-1.274-7.886-2.525-11.67s-3.594-7.461-7.257-9.152a27.387,27.387,0,0,1-3.943-1.736c-1.562-1.054-2.5-2.768-3.632-4.269-5.74-7.583-24.962-3.116-34.061-.038a19.162,19.162,0,0,0-6.733,3.731l.083-.136c.068-.114.152-.227.228-.341a11.967,11.967,0,0,0-2.548,2.843c-1.327,2.1-1.88,4.55-2.987,6.824-1.335,2.692-8.758,10.206-5.566,13.232a2.69,2.69,0,0,0,.758.485,6.558,6.558,0,0,0,3.791.379l-.136.326a22.166,22.166,0,0,0-1.645,8.409,22.759,22.759,0,0,0,22.96,22.558,23.18,23.18,0,0,0,7.029-1.084c.053.288.1.576.152.864a2.661,2.661,0,0,0,.053.341h0l-.4.561a.762.762,0,0,0-.068-.1l-11.9,16.636c-1.82,1.281-12.3,8.864-12.891,14.551-.622,6.225-1.243,13.512-1.243,13.512l-.083,1.562a4.686,4.686,0,0,1-3.791,1.024C895,373.4,895,387.658,895,387.658s-2.472,2.275-4.171.3-6.187,4.709-6.187,4.709l-28.131,1.213h0l-.644.038-1.517-4.694a1.979,1.979,0,0,0-2.48-1.266,2.281,2.281,0,0,0-.341.144l-.106.061-.2.136-.1.091a1.532,1.532,0,0,0-.152.159l-.091.106-.045.045h0a1.911,1.911,0,0,0-.273,1.7l1.3,4.026c-5.429,1.092-10.979,4.17-6.453,12.648l-22.945-4.239,7.423,6.233,38.322,7.909c-.508.91-.174,2.229,1.41,4.087,6.824,8.015,19.26,10.191,24.264,10.752a43.069,43.069,0,0,0,4.921,8.341l-.432,7.984S885.708,509,883.388,512.088a36.075,36.075,0,0,0,3.207-4.224c-3.677,12.5-8.818,29.617-10.168,32.18-2.169,4.095-4.178,20.662-1.706,21.724.758.326,2.927.167,6.021-.068v1.372l-.136,52.009s.622,31.9-1.084,34.94-2.161,9.418-2.161,9.418-6.824,12.579-12.231,17.637a.827.827,0,0,1-.121.106L864.841,676s-6.5,8.2-20.875,7.742c0,0-8.652,5.626,4.178,5.93s29.216-.455,29.216-.455,11.442-17.44,21.026-15.165v13.216h2.934V673.839a12.033,12.033,0,0,0,5.224-7.909,9.615,9.615,0,0,0-3.427-8.894,5.688,5.688,0,0,1-1.873-4.155l-.106.091a8.037,8.037,0,0,0-.1-.819c-.842-6.824-1.9-20.905,1.827-31.324,5.1-14.285,6.65-34.182,2.934-46.026a105.807,105.807,0,0,1-2.95-11.533c-.091-.493-.174-.963-.25-1.4a59.8,59.8,0,0,1,7.53,1.517c8.606,2.373,27.434,2.813,43.509,2.684.038.44.083.9.136,1.365a49.679,49.679,0,0,0,1.79,9.493c2.017,6.066,2.942,32.81,2.942,32.81s2.6,21.989,1.183,30.937c-.758,4.974-1.516,9.971-1.949,14.991v.1s-4.261,12.132-7.378,18.721c-.076.167-.159.334-.235.493a9.859,9.859,0,0,0-2.434.538s-4.178,8.341-8.341,9.721-2.783,5.922,6.642,4.254,23.658-3.033,23.658-3.033l.614-8.508,2.9-3.624-.758,8.485,3.086-.607-.409-10.32,4.739-5.93s5.725-5.1-2.783-15.12v.22c-.091-.144-.174-.3-.273-.44v-.045c-1.41-2.184-2.532-6.256-.478-13.482,3.715-13.057,5.877-24.909,5.877-24.909s8.3-31.748-1.676-46.769h.44a25.262,25.262,0,0,1-2.146-6.673q-.076-.409-.136-.842c7.378-.425,14.619-1.759,20.526-4.641C999.151,553.223,995.6,477.883,992.653,465.887ZM898.986,413.34v.152l-1.516.076Zm-5.2.72a1.678,1.678,0,0,0-.682.326,6.733,6.733,0,0,0-1.19,3.116l-2.366-.531s-1.661-.356-4.049-.758l-1.13-1.137C887.475,414.819,890.706,414.439,893.784,414.06Z" transform="translate(-234.531 -108.204)" fill="url(#b)"/><path d="M972.222,743.046l-.9,10.745,3.025-.607-.455-11.654Z" transform="translate(-234.694 -179.262)" fill="#1d2366"/><path d="M915.568,714.373c-3.647,10.388-2.616,24.408-1.8,31.217.3,2.517.584,4.049.584,4.049s-5.452,12.42-5.907,12.89-16.045,9.986-16.045,9.986l-10.9,6.362s-11.055-4.845-5.755-6.513a8.046,8.046,0,0,0,2.859-1.949c5.308-5.042,11.973-17.576,11.973-17.576s.455-6.362,2.123-9.387,1.061-34.819,1.061-34.819l.129-51.827V650.05l20.738.152a46.922,46.922,0,0,0,.895,6.824,104.3,104.3,0,0,0,2.889,11.5C922.073,680.342,920.557,700.14,915.568,714.373Z" transform="translate(-247.064 -201.603)" fill="#ffb0b1"/><path d="M914.354,780.1s-5.452,12.42-5.907,12.89-16.045,9.986-16.045,9.986l-10.9,6.362s-11.055-4.845-5.755-6.513a8.05,8.05,0,0,0,2.859-1.949l.47,3.313,3.632-.152L913.8,776.07C914.074,778.572,914.354,780.1,914.354,780.1Z" transform="translate(-247.064 -232.068)" opacity="0.1"/><path d="M907.835,777l-31.263,28.162-3.632.152-.758-5.308s-6.354,8.174-20.473,7.719c0,0-8.477,5.6,4.087,5.907s28.609-.455,28.609-.455,11.207-17.44,20.587-15.165v13.171h2.881V797.89A11.972,11.972,0,0,0,912.983,790a9.66,9.66,0,0,0-3.344-8.857,5.709,5.709,0,0,1-1.8-4.148Z" transform="translate(-240.923 -232.293)" fill="#1d2366"/><path d="M1014.573,730.389c-2.017,7.2-.918,11.26.463,13.436v.046a24.835,24.835,0,0,1,3.624,8.849l.122.683-14.225,20.738-7.719,3.033s-12.413-4.239-10.146-5.452c.569-.3,1.456-1.873,2.472-4.049,3.033-6.559,7.219-18.661,7.219-18.661v-.1c.44-5,1.137-9.979,1.911-14.938,1.388-8.925-1.16-30.831-1.16-30.831s-.91-26.637-2.881-32.7a49.993,49.993,0,0,1-1.767-9.433c-.409-3.791-.5-6.915-.5-6.915s8.174-11.374,23.157.91a16.486,16.486,0,0,1,3.131,3.4c10.35,14.725,2.017,47.163,2.017,47.163S1018.2,717.37,1014.573,730.389Z" transform="translate(-274.163 -201.423)" fill="#ffb0b1"/><path d="M1018.811,783.479l-14.225,20.738-7.719,3.033s-12.412-4.239-10.145-5.452c.569-.3,1.456-1.873,2.472-4.049,5.255-.045,7.977,4.959,7.977,4.959l6.657-1.062s8.781-17.258,10.752-18.312.3-7.878.3-7.878V773.72c.053.061.1.129.159.19v.046a24.83,24.83,0,0,1,3.624,8.849Z" transform="translate(-274.171 -231.5)" opacity="0.1"/><path d="M994.363,803.3s-3.791-6.961-11.055-4.39c0,0-4.087,8.341-8.174,9.69s-2.722,5.9,6.513,4.239S1004.8,809.8,1004.8,809.8l.607-8.485,9.387-11.958s5.6-5.073-2.73-15.059v1.736s1.668,6.824-.3,7.878-10.722,18.32-10.722,18.32Z" transform="translate(-270.908 -231.64)" fill="#1d2366"/><path d="M920.9,650.182a46.945,46.945,0,0,0,.895,6.824,95.123,95.123,0,0,0-21.656-.22V650.03Z" transform="translate(-253.307 -201.599)" opacity="0.1"/><path d="M1020.9,660.294s-12.132.591-26.6.713c-.41-3.791-.5-6.915-.5-6.915s8.174-11.374,23.157.91a16.481,16.481,0,0,1,3.131,3.4A18.563,18.563,0,0,0,1020.9,660.294Z" transform="translate(-275.949 -201.421)" opacity="0.1"/><path d="M996.027,616.584s-53.139,2.57-69.335-1.972-32.249-.606-34.668-1.661-.455-17.561,1.668-21.648,13.77-45.419,13.77-45.419l11.207-58.431,11.806-3.253.834-.235,20.571-5.672,15.074-4.163s29.974,117.022,27.4,125.651a22.1,22.1,0,0,0-.44,10.153A25.349,25.349,0,0,0,996.027,616.584Z" transform="translate(-251.076 -159.076)" fill="#1d2366"/><path d="M874.219,439s-10.616,11.374-2.578,17.713,13.323.607,13.323.607Z" transform="translate(-245.691 -150.584)" fill="#c7daf5"/><path d="M874.219,439s-10.616,11.374-2.578,17.713,13.323.607,13.323.607Z" transform="translate(-245.691 -150.584)" opacity="0.1"/><path d="M981.87,333.77s-1.244,1.183-3.116,2.927c-2.669,2.495-6.62,6.142-10.123,9.2-4.853,4.224-8.856,7.325-7.423,4.678s1.16-7.257.447-11.571c-.053-.288-.1-.576-.152-.857a79.515,79.515,0,0,0-2.343-9.372s7.84-10.13,12.177-14.126c1.615-1.516,2.745-2.138,2.813-1.084.076,1.418,1.137,4.55,2.457,7.871.038.106.076.2.121.311.88,2.275,1.873,4.61,2.745,6.627C980.808,331.465,981.87,333.77,981.87,333.77Z" transform="translate(-267.575 -120.133)" fill="#ffb0b1"/><path d="M976.729,321.747a22.505,22.505,0,0,1-15.074,17.258,78.908,78.908,0,0,0-2.495-10.229s14.763-19.07,14.991-15.211C974.2,315.029,975.356,318.274,976.729,321.747Z" transform="translate(-267.575 -120.136)" opacity="0.1"/><path d="M951.459,353.142l1.911-2.692s1.266,7.719,5.922,4.315,4.883,25.621,4.883,25.621l-5,74.711-36.108-2.161,1.024-36.1,4.087-18.2,10.108-26.456,6.013-8.743Z" transform="translate(-258.85 -129.177)" opacity="0.1"/><path d="M964.182,380.984l-4.55,67.553-.478,7.158-20.132-1.206-.758-.045-15.165-.91,1.024-36.108,4.087-18.2,10.108-26.456,6.013-8.743,7.158-10.335,1.911-2.684s1.266,7.719,5.922,4.314l.1-.068h0C963.97,352.375,964.182,380.984,964.182,380.984Z" transform="translate(-258.857 -129.313)" fill="#1d2366"/><path d="M915.592,406.26s-1.812,3.791-5.452,3.177-3.632,13.649-3.632,13.649-2.419,2.275-4.087.3-6.066,4.694-6.066,4.694L868.8,429.3s12.261,5.6,9.857,22.558c0,0,41.628-2.578,42.993-6.513S915.592,406.26,915.592,406.26Z" transform="translate(-245.731 -142.669)" fill="#fff"/><path d="M915.592,406.26s-1.812,3.791-5.452,3.177-3.632,13.649-3.632,13.649-2.419,2.275-4.087.3-6.066,4.694-6.066,4.694L868.8,429.3s12.261,5.6,9.857,22.558c0,0,41.628-2.578,42.993-6.513S915.592,406.26,915.592,406.26Z" transform="translate(-245.731 -142.669)" opacity="0.03"/><path d="M777.66,389.76l7.264,6.2,59.8,12.564-7.416-7.568Z" transform="translate(-187.878 -94.224)" fill="#fff"/><path d="M946.859,354.89c-.994,1.517-3.837,9.281-6.21,16.06-1.979,5.649-3.632,10.616-3.632,10.616s-3.86,25.129-5.831,29.671-.9,22.255-.9,22.255l-7.348,43.744s-3.329,22.558-8.47,36.032c-5.073,13.262-10.722,19.48-10.9,19.677,2.275-3.079,14.672-63.694,14.672-63.694l4.095-76.447s.6-7.264,1.206-13.474,12.891-14.687,12.891-14.687L948.277,347.8C949.467,349.392,948.671,352.168,946.859,354.89Z" transform="translate(-254.136 -128.537)" fill="#fff"/><path d="M911.17,481.374s-17.44-.758-25.887-10.9,19.525-4.049,19.525-4.049l7.272,1.668Z" transform="translate(-249.331 -156.773)" fill="#ffb0b1"/><path d="M1006.973,571.336a22.1,22.1,0,0,0-.44,10.153c-19.025,1.35-39.376-3.791-39.376-3.791-3.791,3.488-13.777,8.629-13.777,8.629l-5.444-67.485c-3.48-9.1-4.845-56.771-4.845-56.771s.311-2.495.758-6.233a.719.719,0,0,1,.038-.281c1.357-10.441,4.049-30.042,5.368-32.689,1.82-3.64-5.6-13.323-5.6-13.323l3.374-28.776.409-3.473c7.113-3.177,12.564-13.323,12.564-13.323l4.186-7.332h0c4.549-2.919,4.785,25.69,4.785,25.69l-4.55,67.553,15.074-4.163S1009.543,562.707,1006.973,571.336Z" transform="translate(-263.69 -130.624)" opacity="0.1"/><path d="M1026.788,570.238c-20.738,10.3-58.431.758-58.431.758-3.791,3.488-13.778,8.629-13.778,8.629l-5.452-67.485c-3.473-9.1-4.838-56.771-4.838-56.771s4.383-35.57,6.2-39.2c.531-1.062.273-2.639-.356-4.337a54.88,54.88,0,0,1-3.321-25.394l1.456-12.367.4-3.465c7.12-3.185,12.572-13.33,12.572-13.33l3.791-6.642,6.976-12.238,3.306-5.793.561.508,4.284,3.882,4.55,3.791c5.937,5,16.2,13.815,21.489,19.207,4.656,4.747,6.127,23.21,6.551,37.109.281,9.152.114,16.325.114,16.325-4.693,7.727,7.583,69.76,7.583,69.76C1023.308,495.17,1026.788,570.238,1026.788,570.238Z" transform="translate(-263.98 -124.862)" fill="#fff"/><path d="M980.245,364.6s-14.232,27.093-12.58,37.39,6.354,21.952,4.087,24.674a8.378,8.378,0,0,1-6.665,3.329c-2.275.152-8.341,4.39-8.341,4.845s-5.6.455-10.616,2.578a66.1,66.1,0,0,1-12.413,3.329s-14.407-.455-15.749.91-2.722,9.531.152,16.045,6.066,11.374,8.477,12.261,17.713-4.239,30.125-5.452,25.887-11.048,25.887-11.048,14.839-5.308,17.44-14.232-3.177-57.976-3.177-57.976S992.507,358.389,980.245,364.6Z" transform="translate(-257.246 -132.339)" opacity="0.03"/><path d="M977.853,361.6s-14.232,27.1-12.564,37.39,6.354,21.952,4.08,24.681A8.34,8.34,0,0,1,962.71,427c-2.275.152-8.341,4.39-8.341,4.845s-5.6.455-10.615,2.57a66.754,66.754,0,0,1-12.413,3.329s-14.407-.455-15.741.91-2.73,9.539.152,16.045,6.066,11.374,8.477,12.261,17.713-4.239,30.126-5.444,25.887-11.055,25.887-11.055,14.831-5.308,17.4-14.225-3.177-57.984-3.177-57.984S990.114,355.4,977.853,361.6Z" transform="translate(-256.672 -131.614)" opacity="0.03"/><path d="M979.66,362.8s-14.232,27.1-12.564,37.39,6.354,21.952,4.087,24.674a8.341,8.341,0,0,1-6.665,3.336c-2.275.152-8.341,4.39-8.341,4.838s-5.6.455-10.616,2.578a66.242,66.242,0,0,1-12.412,3.329s-14.407-.455-15.749.91-2.722,9.539.152,16.045,6.066,11.374,8.477,12.261,17.713-4.239,30.126-5.452,25.887-11.048,25.887-11.048,14.839-5.308,17.44-14.233-3.139-57.976-3.139-57.976S991.914,356.63,979.66,362.8Z" transform="translate(-257.108 -131.907)" fill="#fff"/><path d="M996.959,458.784s-11.374-2.275-7.416,1.516,3.935,7.112,8.781,6.961S996.959,458.784,996.959,458.784Z" transform="translate(-274.717 -155.203)" opacity="0.1"/><path d="M1024.512,566.58s-5.141,3.48,4.693,11.5S1024.512,566.58,1024.512,566.58Z" transform="translate(-283.048 -181.425)" opacity="0.1"/><path d="M1011.93,604.31c0,.455-1.82,16.682,4.989,20.738S1011.93,604.31,1011.93,604.31Z" transform="translate(-280.278 -190.546)" opacity="0.1"/><path d="M865.3,436.59c-5.49.19-17.349,1.865-11.2,13.338,5.437,10.153,14.574,3.367,19.715-1.782A19.374,19.374,0,0,0,865.3,436.59Z" transform="translate(-241.76 -150.001)" fill="#ffb0b1"/><path d="M881.39,451Z" transform="translate(-248.774 -153.484)" fill="#ffb0b1"/><path d="M880.74,451.635l.227-.235Z" transform="translate(-248.617 -153.581)" fill="#ffb0b1"/><path d="M985.982,341.387c-5.823,3.981-10.706,7.34-11.662,8.038-2.608,1.934-7.583,13.285-10.79,19.078-2.555,4.663-10.858,5.861-13.99,6.157l.4-3.465c7.12-3.185,12.572-13.33,12.572-13.33l14.073-24.674,4.845,4.405Z" transform="translate(-265.249 -125.005)" opacity="0.1"/><path d="M985.982,340.787c-5.823,3.981-10.706,7.34-11.662,8.045-2.608,1.926-7.583,13.277-10.79,19.07-2.555,4.663-10.858,5.861-13.99,6.157l.4-3.465c7.12-3.185,12.572-13.33,12.572-13.33l14.073-24.674,4.845,4.39S983.252,338.482,985.982,340.787Z" transform="translate(-265.249 -124.86)" fill="#dce7ff"/><path d="M968.479,310.751a22.49,22.49,0,1,1-19.119-22.232,22.452,22.452,0,0,1,19.119,22.232Z" transform="translate(-258.953 -114.144)" fill="#ffb0b1"/><path d="M1008.247,386.386a19.988,19.988,0,0,1-7.256-7.795c-1.266-2.5-2.108-5.391-4.269-7.165-1.949-1.592-4.55-1.979-6.976-2.692-7.977-2.358-14.665-9.637-14.915-17.948-.121-3.913,1.1-7.818.546-11.692a12.949,12.949,0,0,0-2.532-6.028,20.759,20.759,0,0,0-2.191-2.358c-1.062-1-2.176-1.971-3.147-3.033a11.777,11.777,0,0,1-1.592-2.161,10.4,10.4,0,0,1-.872-2.009c-1.517-4.641-.136-10.146-1.8-14.839l-.091-.258c-.63-1.668-1.911-3.336-3.693-3.465s-3.306,1.35-5,2.009c-3.556,1.38-7.393-.971-10.358-3.367s-6.309-5.133-10.077-4.6c-2.495.356-4.466,2.055-6.764,2.934a9.486,9.486,0,0,1-1.6.463,22.487,22.487,0,0,1,42.857,13.072c.038.106.076.2.121.311.88,2.275,1.873,4.61,2.745,6.627l4.284,3.882,4.549,3.791c5.937,5,16.2,13.815,21.489,19.207C1006.351,354.032,1007.807,372.488,1008.247,386.386Z" transform="translate(-259.474 -114.144)" opacity="0.1"/><path d="M925.426,282.561c1.084-2.207,1.623-4.678,2.919-6.771,1.9-3.033,5.224-4.974,8.636-6.149,8.91-3.071,27.737-7.529,33.363,0,1.107,1.517,2.025,3.2,3.556,4.246a26.409,26.409,0,0,0,3.859,1.736c3.587,1.683,5.876,5.353,7.1,9.1s1.585,7.765,2.48,11.624a85.466,85.466,0,0,0,5.156,14.308c2.358,5.5,4.86,11.215,9.41,15.1,6.21,5.308,7.583,12.822,13.345,18.645,6.824,6.915,6.6,18.327,3.086,27.388a7.519,7.519,0,0,0-.8,3.7,7.255,7.255,0,0,0,2.009,3.427l3.731,4.208a20.978,20.978,0,0,1-22.922-10.57c-1.266-2.5-2.108-5.384-4.277-7.166-1.941-1.592-4.55-1.971-6.968-2.684-7.977-2.366-14.665-9.653-14.915-17.963-.121-3.905,1.1-7.81.546-11.677A12.892,12.892,0,0,0,972.2,327c-2.085-2.722-5.232-4.55-6.93-7.583-2.874-5.073-.69-11.662-2.76-17.106-.637-1.668-1.911-3.336-3.693-3.465s-3.306,1.35-5.012,2.009c-3.549,1.38-7.385-.963-10.35-3.367s-6.309-5.133-10.085-4.6c-2.495.349-4.458,2.047-6.756,2.934-1.7.652-5.141,1.236-6.627-.2C916.842,292.745,924.114,285.261,925.426,282.561Z" transform="translate(-257.915 -108.642)" fill="#591d4b"/><path d="M1002.4,372.408c-1.274-2.5-2.108-5.384-4.277-7.158-1.941-1.592-4.549-1.979-6.976-2.692-7.969-2.358-14.657-9.645-14.915-17.956-.121-3.9,1.1-7.818.554-11.685a12.965,12.965,0,0,0-2.54-6.028c-2.093-2.722-5.24-4.55-6.93-7.583-2.874-5.065-.69-11.654-2.768-17.106-.629-1.661-1.911-3.329-3.685-3.465s-3.314,1.357-5.012,2.017c-3.549,1.38-7.393-.971-10.35-3.367s-6.316-5.133-10.085-4.6c-2.495.356-4.466,2.055-6.756,2.934-1.7.652-5.149,1.244-6.635-.19-3.124-3.033,4.148-10.5,5.452-13.186,1.084-2.214,1.623-4.678,2.927-6.771.068-.114.144-.227.22-.341a12.044,12.044,0,0,0-2.495,2.836c-1.3,2.093-1.835,4.55-2.919,6.771-1.312,2.684-8.583,10.176-5.452,13.186,1.516,1.441,4.929.849,6.627.2,2.275-.887,4.261-2.586,6.756-2.934,3.791-.538,7.128,2.2,10.085,4.6s6.824,4.747,10.358,3.367c1.7-.66,3.185-2.146,5-2.009s3.033,1.8,3.693,3.465c2.07,5.444-.114,12.033,2.76,17.106,1.7,2.98,4.845,4.845,6.931,7.583a12.891,12.891,0,0,1,2.54,6.066c.553,3.867-.667,7.772-.546,11.677.25,8.341,6.938,15.6,14.915,17.963,2.4.713,5.027,1.092,6.968,2.684,2.176,1.782,3.033,4.663,4.276,7.166a20.978,20.978,0,0,0,22.922,10.57l-1.759-1.987A21.2,21.2,0,0,1,1002.4,372.408Z" transform="translate(-257.863 -110.993)" opacity="0.1"/><path d="M956.729,355.465c-.993,1.517-3.837,9.281-6.21,16.06-2.222-.865-4.239-6.377-4.239-6.377L958.124,348.3C959.337,349.968,958.541,352.736,956.729,355.465Z" transform="translate(-264.461 -128.657)" opacity="0.1"/><path d="M957.329,354.868c-.993,1.517-3.837,9.281-6.21,16.06-2.222-.857-4.239-6.377-4.239-6.377l11.844-16.841C959.937,349.371,959.141,352.146,957.329,354.868Z" transform="translate(-264.606 -128.515)" fill="#dce7ff"/><path d="M867.717,451.9,861.151,431.2a1.933,1.933,0,0,1,1.259-2.434h0a1.941,1.941,0,0,1,2.426,1.259l6.567,20.685-.652,4.33Z" transform="translate(-243.859 -148.087)" fill="#be8b87"/><path d="M861.872,429.386h0a1.941,1.941,0,0,1,2.434,1.259l6.567,20.685-.493,3.245.478.5.652-4.33-6.6-20.685a1.941,1.941,0,0,0-2.426-1.259h0a1.94,1.94,0,0,0-1.008.758,2.65,2.65,0,0,1,.4-.174Z" transform="translate(-243.959 -148.097)" fill="#fff" opacity="0.1"/><path d="M822.6,400.308l3.685-1.168-.538,3.549-.114.781-1.077-1.122Z" transform="translate(-198.742 -96.491)" fill="#efc8c4"/><path d="M872.42,461.921a.757.757,0,0,1,.235-.2.334.334,0,0,1,.356,0,.942.942,0,0,1,.129.2.652.652,0,0,0,.47.311L873.5,463Z" transform="translate(-246.606 -156.064)" fill="#727a9c"/><path d="M861.13,441.7s13.171-.076,10.07,5.528-7.946,6.278-7.946,6.278Z" transform="translate(-243.877 -151.236)" fill="#ffb0b1"/><path d="M697.859,110.05h-.569a64.857,64.857,0,0,0-54.147,29.64A64.856,64.856,0,0,0,589,110.05h-.569a64.452,64.452,0,0,0-63.838,64.414c0,21.087,9.236,51.008,27.244,75.628,34.311,46.913,91.309,87.958,91.309,87.958s57-41.037,91.3-87.958c18.016-24.621,27.244-54.541,27.244-75.628a64.452,64.452,0,0,0-63.83-64.414ZM689.723,253.7a12.777,12.777,0,0,1-11.882-8.2H664.314a4.276,4.276,0,0,1-4.026-2.912l-4.155-12.519L642.984,276.01a4.254,4.254,0,0,1-4.079,3.071h-.265a4.2,4.2,0,0,1-3.943-3.518l-13.55-81.5-9.9,48.225a4.224,4.224,0,0,1-4.1,3.207H588.086a4.239,4.239,0,1,1,0-8.47h15.719l14.028-64.839a4.254,4.254,0,0,1,8.341.349l13.838,83.135L651.8,214.568a4.171,4.171,0,0,1,3.966-3.033h.083a4.231,4.231,0,0,1,4.019,2.912l7.514,22.6h10.3a12.708,12.708,0,1,1,12.071,16.682Z" transform="translate(-162.52 -71.062)" fill="#045d63"/></g></svg>